<svg xmlns="http://www.w3.org/2000/svg" width="35.469" height="43.401" viewBox="0 0 35.469 43.401"><defs><style>.a{fill:#fff;}</style></defs><g transform="translate(-1245.355 -9580.861)"><path class="a" d="M1247.186,9596.815c-3.67,6.367-1.337,16.03,2.721,21.89,2.025,2.929,4.076,5.558,6.885,5.558l.16,0a8.488,8.488,0,0,0,3.195-.852,8.747,8.747,0,0,1,3.785-.9,8.243,8.243,0,0,1,3.6.868,7.617,7.617,0,0,0,3.451.828c3.164-.059,5.106-2.9,6.82-5.4a23.885,23.885,0,0,0,2.988-6.12l.012-.037a.357.357,0,0,0-.189-.437l-.026-.011a9.068,9.068,0,0,1-5.495-8.3,9.332,9.332,0,0,1,4.411-7.8l.035-.021a.359.359,0,0,0,.155-.229.353.353,0,0,0-.055-.271,10.272,10.272,0,0,0-8.074-4.386c-.229-.021-.466-.033-.7-.033a14.044,14.044,0,0,0-5.068,1.266,8.154,8.154,0,0,1-2.427.725,7.945,7.945,0,0,1-2.511-.733,12.163,12.163,0,0,0-4.426-1.124h-.112A10.851,10.851,0,0,0,1247.186,9596.815Z"/><path class="a" d="M1271.571,9580.861a9.906,9.906,0,0,0-6.542,3.355,9.282,9.282,0,0,0-2.35,6.884.356.356,0,0,0,.325.309c.151.012.306.018.46.018a8.382,8.382,0,0,0,6.175-3.167,9.787,9.787,0,0,0,2.3-7.082A.357.357,0,0,0,1271.571,9580.861Z"/></g></svg>