<svg xmlns="http://www.w3.org/2000/svg" width="142.905" height="108.824" viewBox="0 0 142.905 108.824"><defs><style>.a{fill:#876486;}.b{fill:#fff;}.c{fill:#241726;}.d{fill:#51b0a7;}.e{fill:#e57c91;}.f{fill:#f5d450;}</style></defs><g transform="translate(-259.547 -2401)"><path class="a" d="M274.3,2418.815s100.244-14.937,101.342-11.618,5.853,52.28,4.756,54.77-98.415,16.182-99.512,14.522S272.832,2418.815,274.3,2418.815Z"/><path class="b" d="M285.671,2472.254s37.987-5,45.235-4.749c0,0,18.244-5.248,45.429-5.859a123.8,123.8,0,0,0-41.431-11.135C310.663,2448.262,285.671,2472.254,285.671,2472.254Z"/><path class="c" d="M285.672,2472.628a.375.375,0,0,1-.26-.645c.229-.22,23.178-22,46.234-22,1.109,0,2.217.051,3.293.151a125.365,125.365,0,0,1,41.568,11.175.375.375,0,0,1-.164.708c-26.818.6-45.152,5.793-45.333,5.845a.347.347,0,0,1-.117.014c-7.136-.247-44.8,4.7-45.172,4.745A.281.281,0,0,1,285.672,2472.628Zm45.974-21.891c-20.245,0-40.469,17.069-44.847,20.992,6.46-.837,37.48-4.806,44.061-4.6,1.138-.318,18.581-5.074,43.911-5.818a127.657,127.657,0,0,0-39.9-10.427C333.817,2450.786,332.732,2450.737,331.646,2450.737Z"/><path class="b" d="M279.025,2423.825s4.333-11.031,19.3-13.789,25.608,8.273,25.608,8.273,9.455-17.728,24.032-16.546a26.934,26.934,0,0,1,21.275,12.607c.788,1.182,8.667,46.488,7.091,47.276s-27.185-13.634-45.429,5.859c0,0-34.6-7.07-45.235,4.749C285.671,2472.254,278.237,2428.947,279.025,2423.825Z"/><path class="c" d="M285.672,2472.628a.406.406,0,0,1-.1-.014.376.376,0,0,1-.266-.3c-.3-1.771-7.435-43.426-6.648-48.549a.426.426,0,0,1,.022-.08c.044-.113,4.584-11.257,19.585-14.021a27.14,27.14,0,0,1,4.889-.448c10.977,0,18.955,6.851,20.7,8.484,1.53-2.626,10.138-16.371,22.725-16.371.473,0,.952.019,1.425.058a27.4,27.4,0,0,1,21.423,12.564l.134.208c.943,1.415,8.194,43.872,7.267,47.359a.7.7,0,0,1-.321.46.757.757,0,0,1-.347.071h0a14.077,14.077,0,0,1-3.078-.862c-3.709-1.248-10.614-3.569-18.3-3.569a31.128,31.128,0,0,0-23.594,10.141.378.378,0,0,1-.349.111,121.313,121.313,0,0,0-21.258-2.091c-11.66,0-19.608,2.262-23.623,6.723A.377.377,0,0,1,285.672,2472.628Zm-6.283-48.7c-.669,4.821,5.557,41.822,6.526,47.53,4.3-4.263,12.255-6.423,23.658-6.423a122.379,122.379,0,0,1,21.2,2.066,31.842,31.842,0,0,1,24-10.227c7.811,0,14.791,2.347,18.541,3.608a17.772,17.772,0,0,0,2.8.822c.859-2.89-6.237-44.913-7.187-46.735l-.135-.207a26.672,26.672,0,0,0-20.851-12.223c-.453-.036-.912-.055-1.365-.055-13.4,0-22.219,16.241-22.306,16.405a.375.375,0,0,1-.6.084c-.084-.086-8.446-8.6-20.518-8.6a26.264,26.264,0,0,0-4.753.437C284.231,2413.014,279.685,2423.225,279.389,2423.925Z"/><line class="b" x2="6.248" y2="45.484" transform="translate(324.158 2420.771)"/><path class="c" d="M330.4,2466.63a.374.374,0,0,1-.37-.323l-6.248-45.484a.375.375,0,0,1,.32-.423.379.379,0,0,1,.422.32l6.248,45.484a.375.375,0,0,1-.32.423A.464.464,0,0,1,330.4,2466.63Z"/><path class="b" d="M330.156,2420.771s3-7.5,14.495-10.246,20.743,5.748,20.743,5.748"/><path class="c" d="M330.156,2421.146a.363.363,0,0,1-.14-.027.374.374,0,0,1-.208-.487c.125-.313,3.2-7.709,14.756-10.472s20.99,5.751,21.083,5.837a.374.374,0,0,1-.506.552c-.092-.083-9.24-8.333-20.4-5.66s-14.205,9.949-14.234,10.022A.375.375,0,0,1,330.156,2421.146Z"/><path class="b" d="M331.156,2427.769s3-7.5,14.495-10.247,20.743,5.749,20.743,5.749"/><path class="c" d="M331.155,2428.144a.38.38,0,0,1-.139-.027.374.374,0,0,1-.208-.487c.125-.314,3.2-7.71,14.756-10.472s20.989,5.75,21.083,5.836a.375.375,0,0,1-.507.553c-.091-.084-9.244-8.326-20.4-5.66-11.178,2.673-14.205,9.948-14.235,10.021A.374.374,0,0,1,331.155,2428.144Z"/><path class="b" d="M332.4,2435.016s3-7.5,14.495-10.246,20.743,5.748,20.743,5.748"/><path class="c" d="M332.4,2435.392a.385.385,0,0,1-.14-.027.377.377,0,0,1-.208-.487c.126-.314,3.2-7.71,14.756-10.473s20.99,5.752,21.084,5.837a.375.375,0,0,1-.507.552c-.091-.083-9.238-8.332-20.4-5.659s-14.2,9.948-14.234,10.022A.377.377,0,0,1,332.4,2435.392Z"/><path class="b" d="M334.4,2445.513s3-7.5,14.495-10.247,20.743,5.748,20.743,5.748"/><path class="c" d="M334.4,2445.888a.386.386,0,0,1-.14-.027.375.375,0,0,1-.208-.487c.125-.313,3.2-7.71,14.755-10.472s20.99,5.751,21.084,5.837a.375.375,0,1,1-.507.552c-.091-.084-9.244-8.332-20.4-5.66s-14.2,9.949-14.234,10.022A.376.376,0,0,1,334.4,2445.888Z"/><path class="b" d="M335.654,2455.509s3-7.5,14.495-10.246,20.743,5.748,20.743,5.748"/><path class="c" d="M335.654,2455.884a.357.357,0,0,1-.139-.027.374.374,0,0,1-.209-.487c.125-.313,3.2-7.709,14.756-10.472s20.989,5.751,21.083,5.837a.374.374,0,0,1-.506.552c-.092-.083-9.245-8.326-20.4-5.66-11.178,2.674-14.206,9.948-14.235,10.022A.375.375,0,0,1,335.654,2455.884Z"/><path class="b" d="M324.158,2457.759s-19.743-12.246-34.988,5.248"/><path class="c" d="M289.17,2463.382a.375.375,0,0,1-.283-.621c15.278-17.532,35.269-5.445,35.469-5.321a.375.375,0,1,1-.4.637c-.194-.12-19.654-11.868-34.508,5.176A.368.368,0,0,1,289.17,2463.382Z"/><path class="b" d="M322.659,2446.513s-19.744-12.246-34.988,5.248"/><path class="c" d="M287.67,2452.136a.367.367,0,0,1-.246-.093.374.374,0,0,1-.036-.528c15.279-17.531,35.268-5.446,35.468-5.321a.375.375,0,0,1-.395.637c-.2-.12-19.655-11.868-34.508,5.176A.374.374,0,0,1,287.67,2452.136Z"/><path class="b" d="M320.909,2437.016s-19.743-12.246-34.988,5.248"/><path class="c" d="M285.921,2442.639a.367.367,0,0,1-.246-.093.372.372,0,0,1-.036-.528c15.277-17.531,35.268-5.446,35.468-5.321a.375.375,0,0,1-.395.637c-.2-.12-19.655-11.871-34.508,5.176A.374.374,0,0,1,285.921,2442.639Z"/><path class="b" d="M319.16,2427.769s-19.743-12.246-34.988,5.248"/><path class="c" d="M284.172,2433.392a.375.375,0,0,1-.283-.621c15.279-17.532,35.268-5.445,35.468-5.321a.375.375,0,1,1-.395.637c-.2-.12-19.657-11.868-34.507,5.176A.37.37,0,0,1,284.172,2433.392Z"/><path class="b" d="M317.91,2419.522s-19.743-12.246-34.988,5.248"/><path class="c" d="M282.922,2425.145a.375.375,0,0,1-.282-.621c15.277-17.53,35.268-5.446,35.468-5.321a.375.375,0,0,1-.395.637c-.2-.12-19.655-11.87-34.508,5.176A.371.371,0,0,1,282.922,2425.145Z"/><path class="d" d="M282.88,2465.016l-6.839,14.4,7.585,4.174s7.2-14.661,6.853-15.282S282.88,2465.016,282.88,2465.016Z"/><path class="e" d="M309.888,2422.559a28.155,28.155,0,1,0,12.248,38.127A28.317,28.317,0,0,0,309.888,2422.559Zm-22.091,43.4a19.814,19.814,0,1,1,26.929-8.31A19.928,19.928,0,0,1,287.8,2465.961Z"/><path class="f" d="M274.894,2474.385s11.96,5.566,12.287,7.067-13.663,27.926-14.55,28.351-13.189-5.763-13.083-6.817S273.218,2474.621,274.894,2474.385Z"/><path class="c" d="M310.846,2450.682a.291.291,0,0,1-.051,0,.374.374,0,0,1-.321-.422c1.314-9.629-4.552-13.1-4.611-13.133a.375.375,0,0,1,.369-.652,9.839,9.839,0,0,1,3.043,3.12c1.284,1.992,2.663,5.476,1.941,10.766A.374.374,0,0,1,310.846,2450.682Z"/><path class="c" d="M308.827,2460.365a.374.374,0,0,1-.253-.651c1.942-1.78,1.621-5.627,1.617-5.666a.375.375,0,0,1,.747-.068c.015.173.36,4.255-1.858,6.287A.37.37,0,0,1,308.827,2460.365Z"/><path class="c" d="M285.166,2486.544a.378.378,0,0,1-.177-.045l-13.515-7.264a.375.375,0,0,1,.354-.66l13.516,7.264a.375.375,0,0,1-.178.7Z"/><path class="c" d="M274.882,2507.136a.382.382,0,0,1-.17-.041l-14.046-7.1a.375.375,0,1,1,.338-.669l14.047,7.1a.375.375,0,0,1-.169.71Z"/><path class="b" d="M386.661,2407.906s11.741,6.58,11,8.126-16.484,31.08-16.484,31.08-10.23,7.456-11.395,6.581-.575-12.185-.744-13.985C368.98,2439.086,385.563,2409.284,386.661,2407.906Z"/><path class="c" d="M370.056,2454.14a.8.8,0,0,1-.5-.148c-.833-.625-.948-4.156-.877-10.886.017-1.539.03-2.868-.016-3.362-.1-1.065,17.517-31.839,17.7-32.072a.377.377,0,0,1,.477-.093c4.5,2.521,11.933,6.994,11.155,8.615-.736,1.535-15.848,29.888-16.491,31.095a.39.39,0,0,1-.109.126C380.454,2448.1,372.114,2454.14,370.056,2454.14Zm-.639-14.406c.044.566.03,1.814.014,3.381-.031,2.9-.1,9.706.578,10.279l.047,0c1.365,0,7.2-3.886,10.831-6.53.89-1.67,15.725-29.507,16.436-30.99.108-.85-5.312-4.513-10.55-7.471C384.687,2411.6,369.963,2438.163,369.417,2439.734Z"/><path class="f" d="M368.4,2440.038s4.4-.541,4.794.223-.038,4.667.618,4.694,4.634-1.889,5.235-.55,1.167,2.95,2.1,3.4,18.106-31.188,17.039-32.751-10.413-9.39-12.038-7.4S370.482,2436.2,368.4,2440.038Z"/><path d="M368.864,2446.518s6.137,4.325,6.259,5.086c.064.4-5.382,3-5.927,2.991C368.487,2454.577,368.864,2446.518,368.864,2446.518Z"/><path class="b" d="M384.873,2409.527s11.861,8.363,12.471,7.89,4.964-7.563,3.794-8.315-11.3-7.138-12.4-5.847A68.722,68.722,0,0,0,384.873,2409.527Z"/><path class="c" d="M397.268,2417.811h0c-1.2,0-9.957-6.106-12.611-7.978a.374.374,0,0,1-.112-.488,67.325,67.325,0,0,1,3.91-6.334,1,1,0,0,1,.8-.3c2.605,0,11.7,5.83,12.088,6.079a.866.866,0,0,1,.369.746c.083,1.871-3.5,7.688-4.136,8.18A.486.486,0,0,1,397.268,2417.811Zm-11.9-8.4c5.1,3.589,10.8,7.358,11.829,7.632.953-.974,4.26-6.968,3.736-7.634-2.572-1.653-9.7-5.955-11.677-5.955a.432.432,0,0,0-.227.039A61.914,61.914,0,0,0,385.365,2409.415Z"/><path class="e" d="M386.421,2406.919s12.35,8.615,12.6,8.419,3.766-6.038,3.4-6.767-11.992-8.205-12.4-7.528S385.895,2406.033,386.421,2406.919Z"/><path class="c" d="M378.73,2444.492a.37.37,0,0,1-.183-.049.374.374,0,0,1-.143-.51L394.14,2415.9a.375.375,0,1,1,.653.368L379.057,2444.3A.373.373,0,0,1,378.73,2444.492Z"/><path class="c" d="M373.2,2440.636a.363.363,0,0,1-.18-.046.375.375,0,0,1-.149-.509L388.2,2412.1a.375.375,0,1,1,.657.36l-15.324,27.976A.374.374,0,0,1,373.2,2440.636Z"/><path class="c" d="M398.912,2409a.376.376,0,0,1-.272-.116,59.951,59.951,0,0,0-6.378-4.857.375.375,0,0,1,.419-.623,59.383,59.383,0,0,1,6.5,4.963.374.374,0,0,1-.272.633Z"/><path class="c" d="M386.915,2437a.374.374,0,0,1-.284-.62,10.916,10.916,0,0,0,.945-1.474.375.375,0,0,1,.66.356,11.53,11.53,0,0,1-1.038,1.609A.376.376,0,0,1,386.915,2437Z"/><path class="c" d="M384.767,2438.511a.374.374,0,0,1-.284-.62,10.972,10.972,0,0,0,.945-1.474.375.375,0,1,1,.66.355,11.537,11.537,0,0,1-1.038,1.61A.376.376,0,0,1,384.767,2438.511Z"/><path class="c" d="M389.326,2430.159a.375.375,0,0,1-.284-.62,10.983,10.983,0,0,0,.944-1.475.375.375,0,0,1,.661.356,11.69,11.69,0,0,1-1.038,1.609A.374.374,0,0,1,389.326,2430.159Z"/><path class="c" d="M386.341,2434.712a.374.374,0,0,1-.283-.62,11.109,11.109,0,0,0,.945-1.475.375.375,0,0,1,.66.356,11.5,11.5,0,0,1-1.038,1.61A.376.376,0,0,1,386.341,2434.712Z"/><path class="c" d="M388.916,2433a.375.375,0,0,1-.283-.62,10.989,10.989,0,0,0,.945-1.475.375.375,0,0,1,.66.356,11.526,11.526,0,0,1-1.038,1.61A.377.377,0,0,1,388.916,2433Z"/></g></svg>