<svg xmlns="http://www.w3.org/2000/svg" width="84.566" height="80.639" viewBox="0 0 84.566 80.639"><defs><style>.a{fill:#76afa7;}.b{fill:#ce7b90;}.c{fill:#edd45b;}.d{fill:#261d2a;}.e{fill:#a888a8;}</style></defs><g transform="translate(-1539.717 -2412.469)"><path class="a" d="M1572.923,2456.359l-10.79,10.668,5.432,6.194s11.193-10.784,11.089-11.45S1572.923,2456.359,1572.923,2456.359Z"/><path class="b" d="M1615.931,2422.727a31.088,31.088,0,1,0-1.632,44.187A31.268,31.268,0,0,0,1615.931,2422.727Zm-39.264,36.742a21.878,21.878,0,1,1,31.081,1.506A22,22,0,0,1,1576.667,2459.469Z"/><path class="c" d="M1562.738,2462.151s8.9,8.859,8.7,10.308-21.281,20.556-22.212,20.648-9.932-9.433-9.5-10.342S1561.163,2461.819,1562.738,2462.151Z"/><path class="d" d="M1606.378,2452.181a.189.189,0,0,1-.038-.017.307.307,0,0,1-.13-.415c2.629-5.007,2.527-8.95,1.979-11.376a10.346,10.346,0,0,0-1.837-4.111.308.308,0,0,1,.468-.4,10.743,10.743,0,0,1,1.961,4.338c.58,2.534.7,6.643-2.025,11.835A.308.308,0,0,1,1606.378,2452.181Z"/><path class="d" d="M1600.64,2461.474a.307.307,0,0,1-.014-.573c2.741-1.14,3.862-5.3,3.873-5.344a.308.308,0,1,1,.6.156c-.049.183-1.213,4.5-4.232,5.756A.3.3,0,0,1,1600.64,2461.474Z"/><path class="d" d="M1568,2476.316a.308.308,0,0,1-.124-.084l-9.738-10.882a.308.308,0,0,1,.459-.411l9.737,10.883a.307.307,0,0,1-.334.494Z"/><path class="d" d="M1552.122,2491.405a.308.308,0,0,1-.119-.078l-10.266-10.906a.308.308,0,0,1,.448-.422l10.267,10.906a.308.308,0,0,1-.33.5Z"/><path class="d" d="M1550.419,2474.534a.307.307,0,0,1-.184-.394c.219-.6,1.647-1.592,1.931-1.784a.308.308,0,0,1,.345.51,6.5,6.5,0,0,0-1.7,1.484A.307.307,0,0,1,1550.419,2474.534Z"/><path class="d" d="M1553.6,2474.617a.307.307,0,0,1-.184-.394c.218-.6,1.647-1.592,1.931-1.784a.308.308,0,0,1,.345.51,6.51,6.51,0,0,0-1.7,1.483A.307.307,0,0,1,1553.6,2474.617Z"/><path class="d" d="M1554.625,2471.782a.309.309,0,0,1-.185-.4c.219-.6,1.648-1.592,1.932-1.783a.307.307,0,1,1,.344.509,6.517,6.517,0,0,0-1.7,1.484A.307.307,0,0,1,1554.625,2471.782Z"/><path class="d" d="M1549.405,2478.6a.307.307,0,0,1-.184-.394c.218-.6,1.647-1.592,1.931-1.784a.308.308,0,0,1,.345.51,6.491,6.491,0,0,0-1.7,1.483A.307.307,0,0,1,1549.405,2478.6Z"/><path class="d" d="M1547.38,2477.863a.309.309,0,0,1-.185-.4c.219-.6,1.648-1.592,1.932-1.783a.307.307,0,1,1,.344.509,6.517,6.517,0,0,0-1.7,1.484A.308.308,0,0,1,1547.38,2477.863Z"/><path class="d" d="M1545.53,2480.858a.307.307,0,0,1-.184-.394c.218-.6,1.647-1.592,1.931-1.784a.308.308,0,0,1,.345.51,6.49,6.49,0,0,0-1.7,1.484A.307.307,0,0,1,1545.53,2480.858Z"/><path class="d" d="M1584.851,2417.051a.312.312,0,0,1-.152-.12.308.308,0,0,1,.088-.426,13.448,13.448,0,0,1,5.015-1.692,22.468,22.468,0,0,1,13.351,2.414.307.307,0,1,1-.269.553c-10.752-5.233-17.69-.806-17.759-.761A.309.309,0,0,1,1584.851,2417.051Z"/><path class="d" d="M1610.243,2422.436a.3.3,0,0,1-.139-.1c-1.386-1.817-5.11-3.48-5.148-3.5a.308.308,0,1,1,.249-.563c.159.071,3.907,1.744,5.388,3.685a.308.308,0,0,1-.35.476Z"/><path class="d" d="M1585.439,2471.226a21.05,21.05,0,0,1-5.779-3.068.308.308,0,0,1,.391-.476c.095.078,9.687,7.753,23.295,2.7a.308.308,0,1,1,.214.577,26.038,26.038,0,0,1-17.229.572C1586.024,2471.432,1585.726,2471.33,1585.439,2471.226Z"/><path class="d" d="M1585.281,2454.829a3.5,3.5,0,0,1-.717-.357c-3.192-2.086-2.32-8.882,1.986-15.472,3.909-5.982,9.349-9.589,12.655-8.391a3.459,3.459,0,0,1,.717.358c1.557,1.017,2.19,3.211,1.78,6.178a23.638,23.638,0,0,1-3.766,9.294C1594.027,2452.421,1588.587,2456.028,1585.281,2454.829Zm13.714-23.641c-2.994-1.085-8.234,2.494-11.929,8.148-4.049,6.2-5.02,12.755-2.166,14.621a2.91,2.91,0,0,0,.591.294c2.995,1.085,8.234-2.494,11.929-8.148a23.018,23.018,0,0,0,3.672-9.043c.376-2.717-.16-4.7-1.506-5.578A2.915,2.915,0,0,0,1598.995,2431.188Z"/><path class="d" d="M1596.823,2455.556c-3.154-1.143-6.746-4.374-9.61-8.642a26.056,26.056,0,0,1-4.17-9.677c-.526-3.08.036-5.347,1.583-6.385a4.667,4.667,0,0,1,4.271-.158c3.153,1.143,6.746,4.374,9.61,8.642a26.047,26.047,0,0,1,4.17,9.677c.526,3.08-.036,5.347-1.583,6.385A4.664,4.664,0,0,1,1596.823,2455.556Zm-8.136-24.283a4.088,4.088,0,0,0-3.718.09c-1.334.9-1.8,2.944-1.319,5.77a25.407,25.407,0,0,0,4.074,9.438c2.752,4.1,6.319,7.323,9.309,8.406a4.088,4.088,0,0,0,3.718-.09c1.334-.9,1.8-2.944,1.319-5.77a25.414,25.414,0,0,0-4.074-9.438C1595.244,2435.578,1591.676,2432.356,1588.687,2431.273Z"/><path class="d" d="M1583.829,2447.932c-4.516-1.637-7.077-4.092-6.849-6.566.171-1.855,1.893-3.434,4.849-4.446a26.037,26.037,0,0,1,10.492-.969,29.528,29.528,0,0,1,7.244,1.561c4.517,1.637,7.077,4.092,6.849,6.566-.35,3.8-7.088,6.176-15.341,5.415A29.505,29.505,0,0,1,1583.829,2447.932Zm15.526-9.842a28.947,28.947,0,0,0-7.09-1.527,25.426,25.426,0,0,0-10.237.939c-2.713.929-4.288,2.321-4.435,3.92-.2,2.146,2.272,4.419,6.446,5.931a28.911,28.911,0,0,0,7.091,1.528c7.777.716,14.358-1.463,14.671-4.859C1606,2441.876,1603.529,2439.6,1599.355,2438.09Z"/><circle class="b" cx="3.06" cy="3.06" r="3.06" transform="translate(1589.902 2439.743)"/><circle class="a" cx="2.09" cy="2.09" r="2.09" transform="translate(1595.293 2453.319)"/><circle class="e" cx="2.09" cy="2.09" r="2.09" transform="translate(1599.543 2430.898)"/><circle class="e" cx="2.09" cy="2.09" r="2.09" transform="translate(1575.428 2440.338)"/></g></svg>