<svg xmlns="http://www.w3.org/2000/svg" width="96.376" height="117.656" viewBox="0 0 96.376 117.656"><defs><style>.a{fill:#e7c21c;}.b{fill:#261d2a;}.c{fill:#feffff;}.d{fill:#76afa7;}.e{fill:#ce7b90;}</style></defs><g transform="translate(-1533.812 -1971.26)"><path class="a" d="M1606.8,1989.331s32.724,29.174,5.771,58.851-59.637-.467-59.637-.467l-5.351,5.474s28.986,29.911,60.025,10.036c33.1-21.2,25.393-56.8,5.017-77.314Z"/><path class="a" d="M1585.171,2063.578l.9,15.7s-18.766,9.424-15.132,9.522,39.817.614,39.057-1.821c-.456-1.457-16.978-6.745-16.978-6.745l-.529-18.291Z"/><path class="b" d="M1620.444,2046.861a.33.33,0,0,1-.271-.519c9.709-13.916,5.938-29.645,5.9-29.8a.33.33,0,1,1,.641-.16c.04.16,3.888,16.171-6,30.34A.329.329,0,0,1,1620.444,2046.861Z"/><path class="b" d="M1612.513,2055.784a.33.33,0,0,1-.147-.626c3.18-1.59,5.457-5.45,5.48-5.489a.33.33,0,1,1,.57.333c-.1.165-2.4,4.07-5.755,5.747A.342.342,0,0,1,1612.513,2055.784Z"/><path class="b" d="M1568.232,2062.723a.337.337,0,0,1-.076-.009c-6.947-1.654-14.379-8.705-14.692-9.005a.33.33,0,1,1,.457-.477c.075.072,7.617,7.227,14.388,8.839a.33.33,0,0,1-.077.652Z"/><circle class="c" cx="34.258" cy="34.258" r="34.258" transform="translate(1549.81 1987.329)"/><path class="d" d="M1590.563,1988.018s-.477,11.466,2.769,17.122,5.74,6.7,7.91,11.3,5.7,1.372,7.845,3.486,4.22-5.009,6-4.669,1.752-2.857,1.021-5.337S1610.536,1992.915,1590.563,1988.018Z"/><path class="d" d="M1558.4,1999.1s10.081,7.315,11.191,12.634-2.077,6.412-1.664,13.158-6.67,9.292-5.56,14.611-5.923,1.943-7.339.163C1550.756,2034.3,1544.51,2014.758,1558.4,1999.1Z"/><path class="d" d="M1576.457,2025.886s-6,4.669-5.966,8.576-4.561,6.788-2.776,7.839,4.946-3.239,7.764-6.1S1581.062,2024.426,1576.457,2025.886Z"/><path class="d" d="M1568.48,2048.688s3.137-7.131,5.644-4.666-.346,1.069,1.457,4.251S1568.5,2051.53,1568.48,2048.688Z"/><path class="d" d="M1607.778,2046.144s-2.438-7.36-1.051-11.279a44.852,44.852,0,0,1,4.895-9.277c1.751-2.857,6.791-.72,6.071,3.856C1616.806,2035.089,1613.79,2042.9,1607.778,2046.144Z"/><path class="d" d="M1594.668,1995.182s-5.006-3.865-8.549-2.769-9.208,3.275-13.473,2.956-12.071.813-8.9-1.7,19.428-12.953,37.646-1.029C1601.4,1992.639,1600.357,1995.844,1594.668,1995.182Z"/><path class="d" d="M1594,2041.722s-2.474,1.442-3.172,2.869-2.8,5.352-.663,5.689,5.66-2.889,7.059-5.388S1596.824,2039.922,1594,2041.722Z"/><path class="d" d="M1572.345,2001.766a19.668,19.668,0,0,0,5.689.662c3.552-.03,7.793-2.553,4.942-3.594s-6.4-.3-10.662-.62S1568.784,2000.73,1572.345,2001.766Z"/><path class="b" d="M1584.062,2056.175a34.588,34.588,0,0,1-.288-69.175h.3a34.588,34.588,0,0,1,.288,69.175Zm.011-68.515h-.294a33.927,33.927,0,0,0,.283,67.853h.294a33.927,33.927,0,0,0-.283-67.853Z"/><path class="e" d="M1559.594,2030.368s-23.376-2.664-25.436-9.425,5.495-13.755,11.211-13.739S1561.409,2031.672,1559.594,2030.368Z"/><circle class="c" cx="3.674" cy="3.674" r="3.674" transform="translate(1540.626 2013.92)"/><path class="b" d="M1548.417,2011.982a.332.332,0,0,1-.27-.14c-2.5-3.56-6.779-1.251-6.96-1.15a.331.331,0,0,1-.321-.578c.05-.028,4.977-2.7,7.822,1.348a.33.33,0,0,1-.081.46A.324.324,0,0,1,1548.417,2011.982Z"/><path class="b" d="M1551.54,2016.979a.33.33,0,0,1-.309-.215,22.836,22.836,0,0,0-1.936-3.044.331.331,0,0,1,.535-.389,23.9,23.9,0,0,1,2.019,3.2.33.33,0,0,1-.193.426A.334.334,0,0,1,1551.54,2016.979Z"/><path class="e" d="M1575.535,2000.322s-16.772-16.5-14.229-23.094,12.8-7.449,17.295-3.915S1576.161,2002.468,1575.535,2000.322Z"/><circle class="c" cx="3.674" cy="3.674" r="3.674" transform="translate(1567.684 1977.164)"/><path class="b" d="M1578.262,1979.025h-.017a.331.331,0,0,1-.313-.347c.223-4.355-4.57-5.162-4.774-5.195a.33.33,0,1,1,.1-.652c.055.009,5.583.939,5.33,5.88A.331.331,0,0,1,1578.262,1979.025Z"/><path class="b" d="M1577.643,1984.884a.31.31,0,0,1-.1-.015.331.331,0,0,1-.216-.415,22.691,22.691,0,0,0,.351-3.59.331.331,0,0,1,.661.023,24,24,0,0,1-.382,3.766A.329.329,0,0,1,1577.643,1984.884Z"/><path class="e" d="M1588.6,2040.541s-8.92-21.771-3.986-26.831,14.7-1.807,17.439,3.21S1588.335,2042.759,1588.6,2040.541Z"/><circle class="c" cx="3.674" cy="3.674" r="3.674" transform="translate(1588.762 2017.312)"/><path class="b" d="M1599.627,2022.064a.325.325,0,0,1-.145-.034.331.331,0,0,1-.152-.442c1.915-3.905-2.169-6.544-2.343-6.654a.33.33,0,1,1,.352-.559c.048.03,4.762,3.062,2.585,7.5A.331.331,0,0,1,1599.627,2022.064Z"/><path class="b" d="M1596.751,2027.206a.335.335,0,0,1-.216-.079.33.33,0,0,1-.034-.466,22.784,22.784,0,0,0,1.736-3.163.33.33,0,1,1,.6.282,23.676,23.676,0,0,1-1.833,3.311A.327.327,0,0,1,1596.751,2027.206Z"/></g></svg>