<svg xmlns="http://www.w3.org/2000/svg" width="178.25" height="133.412" viewBox="0 0 178.25 133.412"><defs><style>.a{fill:#fff;}.b{fill:#241726;}.c{fill:#e57c91;}.d{fill:#f5d450;}.e{fill:#51b0a7;}.f{fill:#876486;}.g{fill:#fdffff;}</style></defs><g transform="translate(-241.876 -1986.317)"><path class="a" d="M256.75,1991.575s-.825-6.262,5.2-4.236,4.064,7.76,1.766,5.8,2.014-8.617,6.626-5.654,3.581,8.713.309,9.137,1.981-6.694,6.1-2.3-4.877,12.412-8.557,9.465-.8-7.7.083-4.8-1.5,5.741-8.025,5.629-3.556-10.154-1.275-7.231-1.506,6.222-6.11,2.778S253.52,1989.6,256.75,1991.575Z"/><path class="b" d="M260.627,2005.033l-.378,0a4.079,4.079,0,0,1-4.175-3.022,7.448,7.448,0,0,1-3.453-1.514,4.769,4.769,0,0,1-1.676-5.619c.757-2.276,2.774-4.059,4.59-4.059a2.773,2.773,0,0,1,.759.1,5.157,5.157,0,0,1,1.011-3.362c.987-1.126,2.612-1.344,4.781-.616a8.255,8.255,0,0,1,2.184,1.088,5.151,5.151,0,0,1,3.683-1.713,4.8,4.8,0,0,1,2.618.815,6.825,6.825,0,0,1,3.3,5.335,4.492,4.492,0,0,1,3.188,1.57,4.542,4.542,0,0,1,.665,5.178c-1.3,3-4.843,5.626-7.586,5.626a3.431,3.431,0,0,1-2.2-.727,5.916,5.916,0,0,1-.777-.745C265.72,2004.459,263.474,2005.033,260.627,2005.033Zm-3.667-2.992a3.2,3.2,0,0,0,3.3,2.153l.363,0c3.283,0,5.075-.77,6.037-1.5a4.325,4.325,0,0,1-.336-4.119,1.422,1.422,0,0,1,1.176-.915c.3,0,.86.156,1.178,1.2a3.931,3.931,0,0,1-.9,3.951,5.1,5.1,0,0,0,.676.649,2.615,2.615,0,0,0,1.681.544c2.407,0,5.658-2.442,6.819-5.122a3.758,3.758,0,0,0-.509-4.275,3.691,3.691,0,0,0-2.6-1.305,3.88,3.88,0,0,1-3.145,3.732,2.466,2.466,0,0,1-.319.022h0a1.037,1.037,0,0,1-1.177-.991c-.047-1.179,1.653-3.162,3.828-3.539a5.994,5.994,0,0,0-2.921-4.692,3.971,3.971,0,0,0-5.2.729,4.013,4.013,0,0,1,1.292,4.135,1.71,1.71,0,0,1-1.55,1.259h0a1.891,1.891,0,0,1-1.211-.5c-1.268-1.083-.858-3.2.288-4.78a7.463,7.463,0,0,0-1.915-.94c-1.821-.612-3.126-.493-3.888.374-1.046,1.193-.77,3.389-.767,3.411a.418.418,0,0,1-.633.411,1.887,1.887,0,0,0-1-.279c-1.454,0-3.157,1.564-3.8,3.487a4.02,4.02,0,0,0,1.385,4.685,6.842,6.842,0,0,0,2.782,1.312,5.78,5.78,0,0,1,.965-4.014,1.61,1.61,0,0,1,1.231-.692,1.535,1.535,0,0,1,1.211.694,2.989,2.989,0,0,1,.5,3.212A3.292,3.292,0,0,1,256.96,2002.041ZM267.5,1998.5c-.076,0-.262.125-.431.458a3.493,3.493,0,0,0,.217,3.154,3.074,3.074,0,0,0,.592-3.006C267.748,1998.663,267.579,1998.5,267.5,1998.5Zm-9.4-1.232a.844.844,0,0,0-.58.38,5.09,5.09,0,0,0-.763,3.566,2.521,2.521,0,0,0,2.308-1.242,2.19,2.19,0,0,0-.414-2.332A.819.819,0,0,0,258.1,1997.266Zm14.9-3.88c-1.753.39-2.98,2-2.954,2.646,0,.08.008.189.341.189h0a1.652,1.652,0,0,0,.211-.015A3.022,3.022,0,0,0,273,1993.386Zm-8.622-4.178c-.988,1.377-1.177,2.939-.39,3.611a.816.816,0,0,0,1.431-.4A3.162,3.162,0,0,0,264.38,1989.208Z"/><path class="a" d="M330.4,2077.344s11.906,28.622-19.173,39.329-50.558-13.133-52.385-35.787,10.452-36.513,14.38-38.811"/><path class="b" d="M296.407,2119.729a34.7,34.7,0,0,1-19.3-5.668c-10.427-6.821-17.588-19.52-18.687-33.142-1.8-22.349,10.061-36.558,14.586-39.2a.418.418,0,0,1,.422.722c-4.4,2.576-15.945,16.466-14.175,38.416,1.079,13.37,8.1,25.827,18.312,32.51,9.475,6.2,21.066,7.206,33.52,2.916,9.364-3.226,15.71-8.413,18.86-15.416,5.018-11.156.114-23.236.063-23.357a.418.418,0,0,1,.773-.321c.051.124,5.094,12.523-.071,24.014-3.247,7.225-9.758,12.565-19.352,15.87A45.919,45.919,0,0,1,296.407,2119.729Z"/><path class="a" d="M259.776,2070.59s-3.736-23.183,21.865-34.627,11.887,16.991,35.394,26.62,21.643,43.474-9.384,51.523S259.16,2093.256,259.776,2070.59Z"/><path class="b" d="M297.332,2115.9a33.922,33.922,0,0,1-24.756-10.645c-8.5-8.732-13.562-22.019-13.217-34.677-.033-.157-3.486-23.555,22.112-35,4.076-1.822,7.311-2.708,9.888-2.708,6.035,0,7.864,4.875,9.983,10.52,2.432,6.481,5.46,14.547,15.851,18.8,10.731,4.4,16.93,14.036,16.178,25.158-.681,10.093-7.769,22.527-25.615,27.157A41.653,41.653,0,0,1,297.332,2115.9Zm-5.973-82.192c-2.457,0-5.58.862-9.547,2.636-13.083,5.848-18.262,14.837-20.3,21.348a31.056,31.056,0,0,0-1.319,12.831c-.333,12.518,4.641,25.573,12.986,34.149a33.1,33.1,0,0,0,24.157,10.392,40.779,40.779,0,0,0,10.213-1.364c17.417-4.517,24.33-16.6,24.992-26.4.727-10.751-5.274-20.073-15.66-24.327-10.73-4.4-13.829-12.65-16.318-19.284C298.467,2038.112,296.815,2033.709,291.359,2033.709Z"/><circle class="c" cx="8.43" cy="8.43" r="8.43" transform="translate(274.513 2043.18)"/><circle class="d" cx="8.43" cy="8.43" r="8.43" transform="translate(267.76 2065.615)"/><circle class="e" cx="8.43" cy="8.43" r="8.43" transform="translate(275.063 2088.223)"/><circle class="f" cx="8.43" cy="8.43" r="8.43" transform="translate(298.495 2093.596)"/><path class="a" d="M302.038,2060.682a21.612,21.612,0,0,1,7.313,5.461c4.979,5.369,4.235,10.972-5.138,8.033S296.582,2060.573,302.038,2060.682Z"/><path class="b" d="M308.654,2075.4a15.72,15.72,0,0,1-4.566-.829c-5.485-1.72-7.4-6.048-6.856-9.574.434-2.834,2.332-4.738,4.722-4.738h.092a.405.405,0,0,1,.138.027,21.807,21.807,0,0,1,7.473,5.568c2.6,2.8,3.706,5.713,2.886,7.593C312.154,2074.343,311.164,2075.4,308.654,2075.4Zm-6.695-14.3c-2,.037-3.536,1.646-3.9,4.028-.485,3.173,1.267,7.077,6.28,8.649a14.9,14.9,0,0,0,4.316.791c1.136,0,2.6-.251,3.122-1.45.676-1.547-.4-4.173-2.732-6.691A21.957,21.957,0,0,0,301.959,2061.1Z"/><path class="a" d="M272.171,2017.433s16.26-11.989,16.805-10.134,4.841,4.413,3.682,5.553-14.914,10.36-17.832,12.312C273.6,2025.987,272.171,2017.433,272.171,2017.433Z"/><path class="b" d="M274.656,2025.638c-1.275,0-2.279-4.425-2.9-8.136a.416.416,0,0,1,.164-.4c1.445-1.066,14.191-10.411,16.7-10.411a.7.7,0,0,1,.749.495,8.036,8.036,0,0,0,1.948,2.438c1.048,1.047,1.952,1.951,1.949,2.778a1.047,1.047,0,0,1-.323.753c-1.151,1.132-13.986,9.748-17.892,12.361A.716.716,0,0,1,274.656,2025.638Zm-2.03-8.021c.551,3.206,1.463,6.709,2.026,7.161,8-5.356,16.842-11.367,17.713-12.224a.2.2,0,0,0,.073-.16c0-.479-.944-1.424-1.7-2.184a8.81,8.81,0,0,1-2.123-2.682C286.75,2007.662,278.158,2013.549,272.626,2017.617Z"/><path class="b" d="M243.505,2034.841s32.182-22.228,33.634-21.543,5.179,5.859,5.281,7.149-30.14,24.39-33.688,26.267S238.889,2037.1,243.505,2034.841Z"/><path class="a" d="M287.106,2006.441c.38-3.5,2.236-12.653,8.492-13.3,8.024-.83,15.8-1.691,17.1.254s-.991,13.42-5.253,18.289C299.744,2020.477,286.386,2013.076,287.106,2006.441Z"/><path class="b" d="M298.744,2016.126a13.766,13.766,0,0,1-9.992-4.362,7.057,7.057,0,0,1-2.062-5.368c.234-2.154,1.76-12.936,8.864-13.672l.618-.064c4.286-.444,8.335-.864,11.436-.864,3.127,0,4.8.422,5.435,1.366,1.478,2.21-1.046,13.952-5.287,18.8A11.691,11.691,0,0,1,298.744,2016.126Zm8.864-23.494c-3.058,0-7.086.418-11.35.86l-.617.064c-6.6.683-7.984,11.679-8.12,12.93a6.25,6.25,0,0,0,1.853,4.72,13.091,13.091,0,0,0,9.37,4.084,10.88,10.88,0,0,0,8.383-3.882c4.091-4.674,6.388-16.035,5.22-17.782C312.044,1993.173,310.975,1992.632,307.608,1992.632Z"/><path class="f" d="M300.3,1992.3s-3.713,3.263-2.946,5.4,4.164,1.52,4.559,4.635-1.7,5.676.759,6.482,6.865.309,8.4-1.809,5.338-11.708,3.452-13.9C311.827,1989.967,304.357,1991.5,300.3,1992.3Z"/><path class="b" d="M292.7,2004.971a.418.418,0,0,1-.4-.543c.1-.308,2.41-7.54,6.9-7.946.485-.043.969-.083,1.454-.124,3.819-.317,7.426-.616,10.173-2.482a.418.418,0,0,1,.47.691c-2.929,1.99-6.815,2.312-10.574,2.624-.482.04-.966.08-1.448.124-3.936.355-6.156,7.293-6.177,7.363A.418.418,0,0,1,292.7,2004.971Z"/><path class="b" d="M296.918,2013.527h-.03a.417.417,0,0,1-.387-.445,7.8,7.8,0,0,1,6.58-6.664c4.386-.9,5.852-4.117,7.55-7.839.482-1.059.981-2.153,1.567-3.226a.418.418,0,0,1,.734.4c-.571,1.047-1.064,2.128-1.54,3.173-1.718,3.766-3.34,7.323-8.143,8.311-5.5,1.131-5.9,5.709-5.914,5.9A.419.419,0,0,1,296.918,2013.527Z"/><path class="a" d="M269.555,2022.065s-9.561,6.156-11.133,7.858"/><path class="g" d="M258.422,2030.341a.418.418,0,0,1-.307-.7c1.59-1.721,10.821-7.673,11.214-7.926a.418.418,0,0,1,.452.7c-.094.061-9.534,6.146-11.052,7.791A.415.415,0,0,1,258.422,2030.341Z"/><path class="a" d="M256.719,2031.364s-2.488,1.834-3.667,2.751"/><path class="g" d="M253.052,2034.533a.418.418,0,0,1-.257-.748c1.169-.91,3.651-2.739,3.676-2.757a.418.418,0,0,1,.5.673c-.025.018-2.5,1.841-3.659,2.744A.418.418,0,0,1,253.052,2034.533Z"/><path class="a" d="M389.81,2076.33s-16.271,11.974-16.815,10.119-4.836-4.418-3.677-5.556,14.925-10.347,17.844-12.3C388.393,2067.775,389.81,2076.33,389.81,2076.33Z"/><path class="b" d="M373.345,2087.062a.706.706,0,0,1-.751-.5,8.036,8.036,0,0,0-1.945-2.439c-1.047-1.048-1.951-1.953-1.947-2.78a1.049,1.049,0,0,1,.324-.753c1.155-1.134,14-9.735,17.9-12.345a.726.726,0,0,1,.4-.125c1.275,0,2.276,4.425,2.89,8.138a.416.416,0,0,1-.165.405C388.612,2077.731,375.861,2087.062,373.345,2087.062Zm13.991-18.079c-8.007,5.347-16.85,11.349-17.724,12.208a.207.207,0,0,0-.074.16c0,.479.943,1.425,1.7,2.185a8.777,8.777,0,0,1,2.122,2.69c1.72-.042,10.412-5.985,15.992-10.08C388.807,2072.939,387.9,2069.436,387.336,2068.983Z"/><path d="M418.493,2058.949s-32.2,22.2-33.655,21.512-5.174-5.864-5.274-7.155,30.163-24.361,33.712-26.235S423.111,2056.693,418.493,2058.949Z"/><path class="a" d="M374.865,2087.309c-.383,3.495-2.248,12.651-8.5,13.293-8.025.823-15.8,1.676-17.1-.27s1-13.419,5.27-18.284C362.24,2073.261,375.591,2080.675,374.865,2087.309Z"/><path class="b" d="M354.381,2101.934c-3.147,0-4.833-.423-5.465-1.37-1.476-2.213,1.059-13.952,5.3-18.792a11.693,11.693,0,0,1,9.005-4.159,13.767,13.767,0,0,1,10,4.367,7.061,7.061,0,0,1,2.059,5.374c-.235,2.154-1.772,12.935-8.877,13.663l-.619.064C361.512,2101.52,357.478,2101.934,354.381,2101.934Zm8.844-23.485a10.878,10.878,0,0,0-8.376,3.874c-4.1,4.67-6.4,16.029-5.238,17.776.3.456,1.379,1,4.77,1,3.054,0,7.067-.412,11.317-.849l.62-.063c6.6-.677,7.994-11.671,8.131-12.923a6.247,6.247,0,0,0-1.851-4.725A13.09,13.09,0,0,0,363.225,2078.449Z"/><path class="d" d="M361.658,2101.441s3.716-3.259,2.951-5.4-4.163-1.524-4.555-4.639,1.707-5.675-.753-6.482-6.865-.316-8.4,1.8-5.348,11.7-3.464,13.9C350.129,2103.76,357.6,2102.231,361.658,2101.441Z"/><path class="b" d="M350.9,2099.924a.418.418,0,0,1-.234-.764c2.929-1.987,6.816-2.306,10.574-2.614.483-.04.966-.079,1.449-.123,3.936-.351,6.162-7.287,6.185-7.357a.418.418,0,1,1,.8.251c-.1.307-2.416,7.538-6.907,7.939-.485.043-.971.083-1.456.123-3.818.313-7.425.61-10.173,2.473A.417.417,0,0,1,350.9,2099.924Z"/><path class="b" d="M349.4,2098.593a.419.419,0,0,1-.367-.619c.573-1.047,1.066-2.128,1.544-3.173,1.721-3.764,3.347-7.319,8.149-8.3,5.5-1.126,5.906-5.7,5.92-5.9a.407.407,0,0,1,.448-.387.419.419,0,0,1,.387.446,7.8,7.8,0,0,1-6.587,6.658c-4.387.9-5.855,4.111-7.557,7.831-.483,1.058-.984,2.153-1.571,3.226A.416.416,0,0,1,349.4,2098.593Z"/><path class="a" d="M389.553,2067.83s10.451-7.943,12.959-8.57"/><path class="g" d="M389.554,2068.248a.418.418,0,0,1-.253-.751c.429-.327,10.548-8,13.11-8.642a.418.418,0,0,1,.2.811c-1.918.479-9.217,5.767-12.807,8.5A.417.417,0,0,1,389.554,2068.248Z"/><path class="a" d="M409.409,2054.871a18.985,18.985,0,0,0-3.344,2.3"/><path class="g" d="M406.065,2057.588a.417.417,0,0,1-.3-.713,19.012,19.012,0,0,1,3.44-2.371.418.418,0,0,1,.4.734,18.7,18.7,0,0,0-3.249,2.228A.42.42,0,0,1,406.065,2057.588Z"/></g></svg>