<svg xmlns="http://www.w3.org/2000/svg" width="66.279" height="107.955" viewBox="0 0 66.279 107.955"><defs><style>.a{fill:#edd45b;}.b{fill:#ce7b90;}.c{fill:#76afa7;}.d{fill:#a888a8;}.e{fill:#261d2a;}.f{fill:#fff;}</style></defs><g transform="translate(-931.11 -2398)"><path class="a" d="M959.657,2462.191l-6.45,36.958c3.3.064,7.127.078,10.946.049l.865-37.025C963.165,2462.168,961.25,2462.178,959.657,2462.191Z"/><path class="b" d="M955.956,2462.231s-13.545,34.931-12.469,36.186c.337.394,4.337.629,9.72.732l6.45-36.958C957.513,2462.208,955.956,2462.231,955.956,2462.231Z"/><path class="c" d="M971.991,2462.382a23.855,23.855,0,0,0-2.834-.165L974.674,2499c5.309-.169,9.315-.432,9.867-.763C986.333,2497.162,973.784,2462.741,971.991,2462.382Z"/><path class="d" d="M965.018,2462.173l-.865,37.025c3.668-.028,7.329-.095,10.521-.2l-5.517-36.784C967.957,2462.189,966.511,2462.176,965.018,2462.173Z"/><path class="e" d="M974.673,2499.319a.318.318,0,0,1-.314-.272l-5.375-37.392a.317.317,0,0,1,.269-.36.323.323,0,0,1,.361.269l5.375,37.392a.318.318,0,0,1-.27.36A.314.314,0,0,1,974.673,2499.319Z"/><path class="e" d="M964.153,2499.516h-.006a.319.319,0,0,1-.313-.324l.691-37.8a.319.319,0,0,1,.637.011l-.691,37.8A.319.319,0,0,1,964.153,2499.516Z"/><path class="e" d="M953.208,2499.467a.31.31,0,0,1-.054,0,.318.318,0,0,1-.261-.367l6.333-37.539a.322.322,0,0,1,.366-.261.317.317,0,0,1,.261.367l-6.332,37.539A.318.318,0,0,1,953.208,2499.467Z"/><path class="f" d="M953.851,2454.252s.593,7.2,2.1,7.979,15.582.994,16.932.331,2.868-8.247,1.255-8.964C971.119,2452.254,953.851,2454.252,953.851,2454.252Z"/><path class="e" d="M966.622,2463.274h0c-3.609,0-9.735-.206-10.811-.76-1.588-.818-2.176-7-2.277-8.236a.318.318,0,0,1,.28-.342c.1-.011,9.76-1.121,15.843-1.121a13.538,13.538,0,0,1,4.615.492c.561.25.858,1.03.883,2.32.045,2.359-.909,6.622-2.127,7.22C972.273,2463.219,968.691,2463.274,966.622,2463.274Zm-12.427-8.74c.251,2.735.957,6.925,1.907,7.414.739.38,5.458.69,10.52.69,3.978,0,5.786-.195,6.125-.362.726-.357,1.821-4.044,1.772-6.637-.019-.963-.208-1.618-.506-1.75a12.567,12.567,0,0,0-4.356-.438C964.221,2453.451,955.892,2454.345,954.2,2454.534Z"/><path class="b" d="M946.654,2434s-12,6-13,14.666c-1.028,8.915,10.333,22.331,12.666,20.331s-1-14,1.666-15.665,8.333-4.666,8-6S946.654,2434,946.654,2434Z"/><path class="b" d="M982.824,2434.209s12,6,13,14.665c1.028,8.916-10.333,22.332-12.666,20.332s1-14-1.666-15.665-8.333-4.667-8-6S982.824,2434.209,982.824,2434.209Z"/><path class="f" d="M950.419,2457.869s26.53.373,29.145-.748,4.065-15.786,2.88-24.133c-2.836-19.991-19.856-35.255-23.36-32.994-4.016,2.591-13.132,15.386-14.461,32.724C943.95,2441.488,950.419,2457.869,950.419,2457.869Z"/><path class="e" d="M959.926,2458.246h0c-5.2,0-9.468-.059-9.511-.059a.318.318,0,0,1-.291-.2c-.266-.672-6.488-16.549-5.817-25.291,1.325-17.288,10.313-30.2,14.6-32.967a1.886,1.886,0,0,1,1.037-.273c5.091,0,20.168,14.851,22.812,33.49,1.083,7.633-.072,23.185-3.069,24.47C978.4,2457.966,971.751,2458.246,959.926,2458.246Zm-9.289-.693c.928.012,4.752.057,9.288.057,11.408,0,18.339-.277,19.514-.781,2.3-.986,3.907-15.218,2.69-23.8-1.546-10.9-7.158-19.373-10.366-23.457-4.839-6.161-9.7-9.486-11.816-9.486a1.259,1.259,0,0,0-.691.172c-3.662,2.362-12.981,15.064-14.316,32.48C944.321,2440.822,949.91,2455.664,950.637,2457.553Z"/><path class="b" d="M947.844,2415.81s27.8-1.015,27.981-1.732-9.32-16.345-15.668-16.075C955.307,2398.21,949.582,2410.418,947.844,2415.81Z"/><path class="b" d="M956.932,2451.088s6.1-13.266,7.709-12.37,6.1,8.247,6.992,11.474-3.765,17.031-6.813,20.258C963.169,2472.2,956.036,2453.6,956.932,2451.088Z"/><circle class="f" cx="9.412" cy="9.412" r="9.412" transform="translate(954.162 2418.281)"/><path class="e" d="M963.575,2437.423a9.731,9.731,0,1,1,9.73-9.73A9.741,9.741,0,0,1,963.575,2437.423Zm0-18.824a9.093,9.093,0,1,0,9.093,9.094A9.1,9.1,0,0,0,963.575,2418.6Z"/><circle class="c" cx="6.567" cy="6.567" r="6.567" transform="translate(956.909 2421.102)"/><path class="e" d="M968.688,2427.266a.318.318,0,0,1-.313-.266c-.51-3.058-3.874-3.459-4.017-3.475a.318.318,0,0,1,.068-.633c.04,0,3.987.465,4.577,4a.318.318,0,0,1-.315.37Z"/><path class="e" d="M960.494,2423.845a.318.318,0,0,1-.132-.608,7.852,7.852,0,0,1,2.6-.426.318.318,0,0,1,0,.637,7.335,7.335,0,0,0-2.335.369A.325.325,0,0,1,960.494,2423.845Z"/><path class="e" d="M993.336,2449.207a.3.3,0,0,1-.067-.007.319.319,0,0,1-.245-.378c.388-1.8-.453-2.464-.461-2.47a.318.318,0,1,1,.369-.518c.049.035,1.194.882.715,3.121A.318.318,0,0,1,993.336,2449.207Z"/><path class="e" d="M990.674,2456.437a.312.312,0,0,1-.132-.029.318.318,0,0,1-.157-.422c.766-1.678.106-2.481.077-2.514a.321.321,0,0,1,.031-.448.316.316,0,0,1,.445.024c.04.045.976,1.12.026,3.2A.319.319,0,0,1,990.674,2456.437Z"/><path class="e" d="M990.54,2444.645a.367.367,0,0,1-.067-.007.318.318,0,0,1-.245-.378c.387-1.8-.431-2.446-.466-2.473a.32.32,0,0,1-.066-.443.316.316,0,0,1,.44-.072c.048.035,1.194.883.715,3.121A.319.319,0,0,1,990.54,2444.645Z"/><path class="e" d="M990.687,2450.384a.3.3,0,0,1-.067-.007.319.319,0,0,1-.245-.377c.387-1.8-.43-2.447-.465-2.473a.318.318,0,0,1,.373-.516c.049.035,1.194.883.715,3.122A.318.318,0,0,1,990.687,2450.384Z"/><path class="e" d="M992.474,2453.457a.319.319,0,0,1-.26-.5c1.063-1.508.562-2.42.541-2.458a.318.318,0,0,1,.545-.328c.031.052.753,1.281-.565,3.153A.322.322,0,0,1,992.474,2453.457Z"/><path class="e" d="M936.2,2450.973a.318.318,0,0,1-.31-.252c-.48-2.238.666-3.086.714-3.121a.318.318,0,0,1,.373.516c-.04.031-.851.674-.465,2.472a.318.318,0,0,1-.244.378A.4.4,0,0,1,936.2,2450.973Z"/><path class="e" d="M938.86,2458.2a.319.319,0,0,1-.29-.186c-.95-2.083-.014-3.158.026-3.2a.318.318,0,0,1,.475.423c-.031.038-.685.841.079,2.515a.319.319,0,0,1-.158.422A.308.308,0,0,1,938.86,2458.2Z"/><path class="e" d="M938.994,2446.411a.32.32,0,0,1-.311-.251c-.479-2.239.667-3.087.715-3.123a.318.318,0,0,1,.373.516c-.04.031-.85.675-.465,2.473a.318.318,0,0,1-.245.378A.305.305,0,0,1,938.994,2446.411Z"/><path class="e" d="M938.848,2452.15a.318.318,0,0,1-.311-.252c-.48-2.238.666-3.086.715-3.121a.318.318,0,0,1,.373.516c-.041.031-.851.674-.465,2.472a.318.318,0,0,1-.312.385Z"/><path class="e" d="M937.06,2455.223a.319.319,0,0,1-.26-.135c-1.319-1.872-.6-3.1-.565-3.152a.318.318,0,0,1,.545.329c-.025.044-.519.953.54,2.456a.318.318,0,0,1-.26.5Z"/><path class="e" d="M959.45,2453.181a.319.319,0,0,1-.311-.252c-.479-2.239.667-3.087.715-3.122a.318.318,0,0,1,.373.516c-.04.031-.85.675-.465,2.473a.319.319,0,0,1-.245.378A.391.391,0,0,1,959.45,2453.181Z"/><path class="e" d="M962.112,2460.41a.32.32,0,0,1-.29-.186c-.951-2.083-.014-3.158.027-3.2a.318.318,0,0,1,.474.424c-.032.038-.685.841.079,2.514a.32.32,0,0,1-.157.423A.334.334,0,0,1,962.112,2460.41Z"/><path class="e" d="M962.246,2448.618a.318.318,0,0,1-.31-.251c-.48-2.239.666-3.086.714-3.122a.318.318,0,0,1,.373.516c-.041.032-.85.675-.465,2.473a.319.319,0,0,1-.244.378A.4.4,0,0,1,962.246,2448.618Z"/><path class="e" d="M956.435,2405.885a.319.319,0,0,1-.318-.3c-.116-2.286,1.15-2.94,1.2-2.967a.318.318,0,0,1,.285.569c-.046.025-.947.532-.854,2.366a.318.318,0,0,1-.3.334Z"/><path class="e" d="M957.317,2409.417a.318.318,0,0,1-.317-.3c-.116-2.287,1.15-2.941,1.2-2.968a.318.318,0,0,1,.285.569c-.045.024-.947.53-.854,2.367a.317.317,0,0,1-.3.333Z"/><path class="e" d="M953.344,2409.417a.318.318,0,0,1-.317-.3c-.117-2.287,1.15-2.941,1.2-2.968a.318.318,0,0,1,.285.569c-.045.024-.947.53-.854,2.367a.317.317,0,0,1-.3.333Z"/><path class="e" d="M954.374,2412.213a.317.317,0,0,1-.317-.3c-.117-2.286,1.15-2.941,1.2-2.968a.318.318,0,0,1,.285.569c-.047.025-.947.532-.854,2.366a.318.318,0,0,1-.3.334Z"/><path class="e" d="M951.284,2414.273a.318.318,0,0,1-.318-.3c-.116-2.287,1.15-2.941,1.2-2.968a.318.318,0,0,1,.285.569c-.046.025-.947.532-.854,2.367a.318.318,0,0,1-.3.334Z"/><path class="e" d="M962.1,2454.358a.319.319,0,0,1-.311-.252c-.479-2.239.667-3.086.715-3.122a.318.318,0,0,1,.373.516c-.04.031-.85.675-.465,2.473a.319.319,0,0,1-.245.378A.391.391,0,0,1,962.1,2454.358Z"/><path class="e" d="M960.312,2457.43a.317.317,0,0,1-.26-.135c-1.319-1.872-.6-3.1-.565-3.152a.318.318,0,0,1,.545.329c-.026.046-.517.954.541,2.457a.318.318,0,0,1-.261.5Z"/><path class="d" d="M933.656,2487.918s29.915,12.517,30.763,12.3,29.066-15.7,29.915-15.063,4.031,6.152,2.758,7.213-29.066,13.791-32.249,13.579-33.733-11.033-33.733-11.881S932.171,2488.342,933.656,2487.918Z"/></g></svg>