<svg xmlns="http://www.w3.org/2000/svg" width="360.691" height="370.115" viewBox="0 0 360.691 370.115"><defs><style>.a{fill:#ffd500;}.b,.m{fill:#ffd3c3;}.c{fill:#ffaf93;}.d{fill:#dba300;}.e{fill:#ffc4ae;}.f,.j,.l,.q{fill:none;}.f{stroke:#dba300;}.f,.j,.l,.m,.q{stroke-miterlimit:10;}.f,.j,.l,.m{stroke-width:1.455px;}.g,.h{fill:#290000;}.h{opacity:0.3;mix-blend-mode:multiply;isolation:isolate;}.i{fill:#ffc200;}.j,.q{stroke:#290000;}.k{fill:#4b1300;}.l{stroke:#fff;}.m{stroke:#ffaf93;}.n{fill:#fff;}.o{fill:#d5dbe1;}.p{fill:#f2eff0;}.q{stroke-width:0.364px;}.r{fill:#fd7472;}</style></defs><g transform="translate(-1124.172 -2793.621)"><path class="a" d="M1198.4,3045.1l76.273-91.04,41.965,49.861-73.779,80.332a29.626,29.626,0,0,1-46.556-3.592h0A29.627,29.627,0,0,1,1198.4,3045.1Z"/><path class="b" d="M1196.608,3058.607a26.255,26.255,0,0,0,18.426,19.977,26.559,26.559,0,0,0,32.544-34.482l-38.82-107.724-.045-.149-8.8-2.386S1183.325,2992.893,1196.608,3058.607Z"/><path class="b" d="M1139.439,2896.541l7.338,12.353,17.289,10.315v-11.987l-9.689-3.551-9.95-10.76a2.9,2.9,0,0,0-3.5-.575l-.418.235a2.887,2.887,0,0,0-1.071,3.97Z"/><path class="b" d="M1133.85,2898.6l12.405,18.908,1.8,2.742,18.647,10.42,8.775-10.707-23.165-10.864-12.353-15.017a3.779,3.779,0,0,0-2.925-1.384,3.789,3.789,0,0,0-3.264,1.88A3.794,3.794,0,0,0,1133.85,2898.6Z"/><path class="c" d="M1133.85,2898.6l12.405,18.908,13.606,5.066-12.692-8.592-13.4-19.4A3.794,3.794,0,0,0,1133.85,2898.6Z"/><path class="b" d="M1125.023,2902.182a3.859,3.859,0,0,0,.444,1.828l1.175,2.272,6.32,12.17,7.417,8.54,14.077,16.244,25.071-13.371-33.977-12.614-13.423-17.628a4,4,0,0,0-7.1,2.559Z"/><path class="c" d="M1127.508,2907.949l5.455,10.5,7.417,8.54,14.338,1.541-15.33-8.514Z"/><path class="b" d="M1154.467,2943.242l-21.345-13.949-8.583-15.284a2.865,2.865,0,0,1,1.165-3.939h0a2.865,2.865,0,0,1,3.665.87l7.667,10.731,17.681,6.862Z"/><path class="b" d="M1161.455,2891.579a4.32,4.32,0,0,0,1.514,3.317l12.51,10.707v14.364l33.271,16.322h0a37.819,37.819,0,0,0-17.692-34.165l-22.813-14.28a4.416,4.416,0,0,0-6.686,2.795A3.861,3.861,0,0,0,1161.455,2891.579Z"/><path class="b" d="M1208.738,2936.277c-14.636-22.651-45.048-29.052-45.048-29.052l-8.97,36.069,43.778,13.135Z"/><path class="c" d="M1139.387,2893.72l12.927,15.383,13.248,4.877-12.386-7.463-12.666-13.946A2.8,2.8,0,0,0,1139.387,2893.72Z"/><path class="c" d="M1164.054,2929.722c14.419-6.745,25.427-5.259,35.516,7.072A39.27,39.27,0,0,0,1164.054,2929.722Z"/><path class="c" d="M1195.448,2955.472l8.846,3.185-10.033,4.834Z"/><path class="d" d="M1326,3014.483l-51.1,20.387-27.379,128.865h33.848Z"/><path class="e" d="M1412.117,3035c-16.962,30.162-34.428,68.633-56.266,86.327a152.854,152.854,0,0,1-15.011,10.971l-6.722-14.7-29.989-65.584-8.777-19.191-12.051-26.366-9.474-20.724a35.6,35.6,0,0,1,21.211-48.692,29.48,29.48,0,0,1,3.9-1.114l27.063-5.608,52.349,9.753c.941.139,1.95.383,2.926.591,31.625,7,46.776,17.415,52.453,29.814C1443.517,2991.965,1426.745,3009.152,1412.117,3035Z"/><path class="c" d="M1317.246,2947.878l-11.352,37.938-13.8,2.514Z"/><path class="a" d="M1261.891,2997.671l13.558,20.716,6.838-11.551,48.442-81.727,3-5.048-7.4,3.375-17.472,7.972-9.907,4.51C1263.375,2935.089,1264.553,2937.853,1261.891,2997.671Z"/><path class="d" d="M1281.167,3006.764l1.12.073,48.443-81.727-4.408-1.673-17.471,7.972v13.966Z"/><path class="f" d="M1297.461,2936.723s-48.3,40.161-25.31,111.088"/><path class="e" d="M1315.645,2896.689l1.8,57.445,49.454-11.278-5.314-78.356Z"/><path class="c" d="M1316.36,2915.74l.447,18.1c28.618-5.168,31.632-31.33,31.632-31.33Z"/><path class="g" d="M1294.052,2861.888c-35.5-61.218,61.485-98.146,84.281-36.685Z"/><path class="b" d="M1283.893,2898.557c3,13.4,14.476,23.241,27.8,21.377,4.264-.6,11.375-2.072,18.859-3.741a47.406,47.406,0,0,0,36-36.748l4.5-22.168,3.012-12.806a31.467,31.467,0,0,0-17.279-35.615,31.941,31.941,0,0,0-10.092-2.773,54.765,54.765,0,0,0-11.151-.03c-1.536.135-3.071.328-4.577.612l-.089.014-.224.06-3.041.656-.045.015a54.609,54.609,0,0,0-15.146,6.217,55.421,55.421,0,0,0-19.023,18.754,54.126,54.126,0,0,0-4.383,8.825C1281.195,2861.317,1279.853,2880.458,1283.893,2898.557Z"/><path class="e" d="M1341.154,2839.626c-2.161,16.324,4.1,26.431,16.5,38.73-2.8,10.451-3.637,18.367-3.086,24.151a47.374,47.374,0,0,0,11.986-23.062l4.5-22.168,3.012-12.806a31.433,31.433,0,0,0-1.76-19.6c-.417-.134-.834-.283-1.237-.4-14.311-14.341-28.131-18.56-40.191-17.785l-.224.06-3.041.656-.045.015a54.609,54.609,0,0,0-15.146,6.217,55.421,55.421,0,0,0-19.023,18.754C1301.246,2835.988,1319.359,2842.637,1341.154,2839.626Z"/><path class="e" d="M1347.024,2889.789l4.511-22.165,3-12.813a31.336,31.336,0,0,0-27.37-38.378,54.588,54.588,0,0,0-11.147-.033c-1.541.134-3.064.323-4.583.6l-.307.082-3.036.649-.055.02c-.84.205-1.661.465-2.487.709a56.092,56.092,0,0,1,6.878-4.828,54.616,54.616,0,0,1,15.135-6.226l.055-.019,3.036-.649.307-.082c1.519-.279,3.042-.467,4.583-.6a54.588,54.588,0,0,1,11.147.033,31.337,31.337,0,0,1,27.37,38.378l-3,12.813-4.511,22.165a47.3,47.3,0,0,1-34.543,36.361A47.327,47.327,0,0,0,1347.024,2889.789Z"/><path class="g" d="M1395.329,2865.431c-7.469,18.754-1.759,32.6,8.647,39.342,10.078,6.53,24.583,6.4,35.779-2.4,0,0-15.132-6.828,0-36.942,14.311-28.459-8.051-52.073-44.485-38.462-2.088.775-4.234,1.685-6.411,2.713C1388.859,2829.682,1405.6,2839.686,1395.329,2865.431Z"/><path class="h" d="M1395.329,2865.431c-7.469,18.754-1.759,32.6,8.647,39.342a41.4,41.4,0,0,0,3.443-4.293c14.3-20.454,21.378-58.543-12.149-73.511-2.088.775-4.234,1.685-6.411,2.713C1388.859,2829.682,1405.6,2839.686,1395.329,2865.431Z"/><path class="i" d="M1402.42,2849.4l-17.364-24.851C1402.107,2822.073,1409.578,2836.614,1402.42,2849.4Z"/><path class="j" d="M1350.65,2820.77c-9.38,24.531-8.67,51.444,17.958,48.964"/><path class="g" d="M1362.371,2872.771c-14.921-14.8-21-26.4-14.127-49.518,0,0,4.247-12.7,29.9-3.584,38.25,13.592,31.175,53.909,16.313,75.177C1380.8,2914.39,1348.908,2923.088,1362.371,2872.771Z"/><path class="k" d="M1328.077,2868.764c-.228,4.832,1.375,8.834,3.578,8.937s4.175-3.73,4.4-8.562-1.375-8.834-3.58-8.938S1328.3,2863.931,1328.077,2868.764Z"/><path class="g" d="M1293.342,2839.364c10.272-1.007,10.264-6.553,2.286-6.967C1287.047,2831.952,1280.563,2840.617,1293.342,2839.364Z"/><path class="k" d="M1292.961,2864.381c-.227,4.832,1.376,8.834,3.58,8.938s4.174-3.731,4.4-8.563-1.375-8.834-3.578-8.938S1293.189,2859.549,1292.961,2864.381Z"/><ellipse class="l" cx="12.367" cy="19.69" rx="12.367" ry="19.69" transform="translate(1279.73 2848.538)"/><path class="m" d="M1309.755,2852.322c-3.122,8.838-7.5,14.407-11.513,19.349-6.255,7.705,1.008,18.928,10.618,16.453l2.574-.663"/><path class="g" d="M1337.9,2847c9.478,4.083,12.152-.777,5.368-5C1335.974,2837.465,1326.11,2841.919,1337.9,2847Z"/><path class="g" d="M1378.694,2821.9c-43.372,27.384-84.779,2.764-84.779,2.764S1334.264,2773.3,1378.694,2821.9Z"/><path class="n" d="M1300.58,2891.9l16.351,1.168C1311.137,2909.067,1304.75,2908.669,1300.58,2891.9Z"/><path class="g" d="M1408.894,3163.736H1281.37l27.486-118.282,87.957,9.688Z"/><path class="g" d="M1428.915,3010.856c-16.962,30.162-51.226,92.773-73.064,110.467-4.946.522-7.976.7-7.976.7l-13.757-4.424-29.989-65.584-8.777-19.191,1.64-50.774C1341.121,2975.4,1366.769,2983.813,1428.915,3010.856Z"/><path class="g" d="M1296.992,2982.047c-33.021,39.876-31.15,82.781,23.393,87.455Z"/><path class="a" d="M1362.133,3051.719l-10.364,112.017h79.2l-29.7-128.865Z"/><path class="a" d="M1401.275,2946.272l-25.378-24.215-10.566-1.816,1.034,15.249c-42.179,77.977-37.991,127.616,16.638,161.756,0,0,39.272-74.553,53.645-103.666C1456.161,2954.061,1436.648,2947.878,1401.275,2946.272Z"/><path class="d" d="M1375.9,2922.057l-9.532,13.433-1.034-15.249Z"/><path class="d" d="M1391.168,3004.879l.2,94.424-35.175,16.6s32.547,24.763,70.313,27.827l-17.725-82.776Z"/><path class="o" d="M1242.825,3020.312l42.623,8a5.583,5.583,0,0,1,2.7,1.336l77.321,69.5a1.515,1.515,0,0,1-1.292,2.617l-43.453-8.163a5.59,5.59,0,0,1-2.7-1.335l-80.624-67.738,1.33-2.322A3.892,3.892,0,0,1,1242.825,3020.312Z"/><path class="n" d="M1238.97,3023.739l43.453,8.162a5.587,5.587,0,0,1,2.7,1.336l77.321,69.5a1.515,1.515,0,0,1-1.293,2.616l-43.453-8.162a5.6,5.6,0,0,1-2.7-1.336l-77.321-69.5A1.515,1.515,0,0,1,1238.97,3023.739Z"/><path class="p" d="M1285.859,3062.833c4.584,6.034,12.116,11.253,16.822,11.658s4.806-4.16.222-10.194-12.116-11.254-16.823-11.658S1281.275,3056.8,1285.859,3062.833Z"/><path class="q" d="M1238.97,3023.739l43.453,8.162a5.587,5.587,0,0,1,2.7,1.336l77.321,69.5a1.515,1.515,0,0,1-1.293,2.616l-43.453-8.162a5.6,5.6,0,0,1-2.7-1.336"/><path class="b" d="M1332.761,3108.056s38.775,16.31,90.043,19.053c2.4.134,4.831.238,7.29.3a248.2,248.2,0,0,0,26.059-.6,26.559,26.559,0,1,0-8.065-52.371l-26.461,5.963-16.309,3.668-69.1,15.549Z"/><path class="e" d="M1422.8,3127.109c2.4.134,4.831.238,7.29.3a248.2,248.2,0,0,0,26.059-.6,26.559,26.559,0,1,0-8.065-52.371l-39.194,8.826C1406.621,3103.752,1410.19,3117.7,1422.8,3127.109Z"/><path class="b" d="M1347.1,3113.164c-38.331-12.98-49.287-21.135-49.287-21.135l38.267-15.719,15.691,26.18Z"/><path class="b" d="M1297.811,3092.029l-10.293-14a5.029,5.029,0,0,1,1.26-7.161h0a5.029,5.029,0,0,1,6.16.448l19.1,17.225Z"/><path class="b" d="M1329.16,3079.672l-20.3.155-9.923,10.4,24.675,7.021Z"/><path class="b" d="M1298.934,3090.225l-13.639-19.1a4.781,4.781,0,0,1,2.563-7.371h0a4.781,4.781,0,0,1,4.551,1.062l16.448,15.012Z"/><path class="b" d="M1349.859,3099.3l-6.819-19.286a27.34,27.34,0,0,0-10.634-13.649l-8.518-5.667a3.8,3.8,0,0,0-5.4,1.264h0a3.8,3.8,0,0,0,.7,4.684l7.63,7.114.444,18.966Z"/><path class="a" d="M1426.762,3106.118c-14.607-32.335-56.891-130.595-56.891-130.595l64.747-7.419,49.344,122.6a29.625,29.625,0,0,1-28.723,36.814h0C1442.039,3127.526,1432.2,3118.148,1426.762,3106.118Z"/><path class="r" d="M1405.532,2849.4"/><path class="f" d="M1401.275,2946.272s-33.749,47.158-41.627,132.311"/><ellipse class="l" cx="13.667" cy="19.69" rx="13.667" ry="19.69" transform="translate(1314.646 2852.524)"/><line class="l" x1="12.852" y1="2.773" transform="translate(1303.391 2860.199)"/><line class="l" x2="26.816" y2="0.783" transform="translate(1341.792 2868.951)"/><path class="e" d="M1354.141,2879.6c11.1-24.781,26.214-18.138,28.628-6.389,2.273,11.07-8.319,28.385-24.1,19.762Z"/><path class="n" d="M1364.092,2894.725a3.617,3.617,0,1,0,3.617-3.617A3.617,3.617,0,0,0,1364.092,2894.725Z"/><path class="d" d="M1467.206,3089.858,1423.192,2980.5c7.1-18.844,2.979-28.341-8.53-33.255,23.8,2.613,36.163,10.321,26.274,36.556l43.026,106.9a29.575,29.575,0,0,1-37.332,35.519A30.329,30.329,0,0,0,1467.206,3089.858Z"/><path class="j" d="M1431.924,2895.3c-1.119-22.443,17.015-27.368,15.671-48.188s-25.745-25.074-36.939-21.492"/></g></svg>