<svg xmlns="http://www.w3.org/2000/svg" width="588.162" height="503.187" viewBox="0 0 588.162 503.187"><defs><style>.a{fill:#ffc800;}.b{fill:#1a2e35;}.c{fill:#375a64;}.d{fill:#2b454e;}.e,.f{opacity:0.2;}.g{fill:#a8a8a8;}.h{fill:#fff;}.i{fill:#dcdcdc;}.j{fill:#eb776d;}.k{opacity:0.1;}.l{fill:#ff9bbc;}</style></defs><g transform="translate(-644.07 -7060)"><path class="a" d="M1186.008,7401.45s11.313-40.607,20.348-54.4,25.876-28.939,25.876-28.939S1231.837,7380.719,1186.008,7401.45Z"/><path class="b" d="M1186.818,7400.755a194.519,194.519,0,0,0,10.314-19.675,137.47,137.47,0,0,1,5.618-21.353c.048-.13.23-.058.2.071-1.5,6.417-3.248,12.774-4.834,19.17,4.567-9.882,8.907-19.89,14.347-29.233a62.444,62.444,0,0,1,5.244-12.994c.06-.119.257-.055.2.071a83.438,83.438,0,0,0-3.53,9.747,97.394,97.394,0,0,1,8.6-11.873c.2-.232.594.025.4.274-7.273,9.282-12.293,19.841-17.074,30.533a162.573,162.573,0,0,0,14.2-17.744.06.06,0,0,1,.1.069,145.8,145.8,0,0,1-15.2,19.707c-3.483,7.833-6.906,15.7-11.057,23.149,8.3-7.011,14.676-16.083,20.992-24.837a.189.189,0,0,1,.311.214c-6.318,9.6-12.857,18.65-21.948,25.764a100.947,100.947,0,0,1-6.073,9.488A.485.485,0,0,1,1186.818,7400.755Z"/><path class="a" d="M1182.5,7405.107s20.335-37.442,14.428-73.744-12.232-49.228-12.232-49.228S1152.732,7338.6,1182.5,7405.107Z"/><path class="b" d="M1174.154,7346.243a177.193,177.193,0,0,0,7.85,30.234c.057-13.323.31-26.645.667-39.965a102.991,102.991,0,0,1-3.838-24.811c-.01-.247.358-.232.378.006a141.333,141.333,0,0,0,3.562,21.35q.464-16.485,1.073-32.963a.144.144,0,0,1,.287,0c-.017,17.165-.007,34.335-.116,51.5a137.623,137.623,0,0,0,5.863-20.4.061.061,0,0,1,.118.018c-.611,8.018-3.048,15.77-6,23.21-.079,10.974-.2,21.948-.442,32.919,3.44-11.667,7.114-22.966,8.11-35.294a.129.129,0,0,1,.257,0c-.27,13.6-3.774,27.4-8.258,40.181a.727.727,0,0,1-.227.322q-.153,6.015-.351,12.03a.446.446,0,0,1-.892-.016q-.238-12.308-.2-24.616c-4.568-10.544-7-22.3-8.017-33.7C1173.966,7346.163,1174.138,7346.142,1174.154,7346.243Z"/><path class="b" d="M1175.548,7340.453a69.883,69.883,0,0,1,1.419,9.892c.006.113-.165.128-.193.023a70.027,70.027,0,0,1-1.673-9.862C1175.072,7340.252,1175.5,7340.205,1175.548,7340.453Z"/><path class="b" d="M1187.437,7313.083c.019-.112.192-.077.193.03a25.415,25.415,0,0,1-1.019,6.823c-.05.18-.312.1-.276-.082C1186.779,7317.6,1187.053,7315.34,1187.437,7313.083Z"/><path class="a" d="M1175.086,7407.974s.829-39.085-10.384-58.512-29.809-29.326-29.809-29.326S1142.392,7389.032,1175.086,7407.974Z"/><path class="b" d="M1154.652,7374.548c4.714,6.788,9.4,13.328,15.173,19.233q-3.357-11.988-7.761-23.571c-6.285-5.512-12.52-11.224-16.376-18.765a.106.106,0,0,1,.183-.107c4.146,6.679,9.691,12.023,15.525,17.164a302.216,302.216,0,0,0-15.607-33.989.248.248,0,0,1,.428-.25A185.651,185.651,0,0,1,1156,7352.1c-1.051-4.178-1.891-8.451-2.968-12.6a.092.092,0,0,1,.178-.049c1.988,5.223,3.967,11,4.6,16.577a198.978,198.978,0,0,1,9.871,26.747c-.288-5.859-.656-11.694-1.26-17.536-.012-.111.174-.136.2-.026a94.949,94.949,0,0,1,1.7,19.686q2.424,8.738,4.067,17.657c.03.159-.206.229-.245.068-.608-2.49-1.27-4.958-1.945-7.421-.043-.019-.088-.011-.128-.051-6.014-6.023-11.725-12.892-15.48-20.572A.035.035,0,0,1,1154.652,7374.548Z"/><path class="b" d="M1141.661,7342.746c1.25,1.349,2.4,2.768,3.6,4.158a31.961,31.961,0,0,1,3.228,3.77.064.064,0,0,1-.087.087,19.012,19.012,0,0,1-3.729-3.679,31.413,31.413,0,0,1-3.192-4.2A.114.114,0,0,1,1141.661,7342.746Z"/><path class="c" d="M1208.4,7403.2l-1.413,18.514-4.26,55.965h-37.141l-4.26-55.965-1.413-18.514H1208.4Z"/><path class="d" d="M1208.4,7403.2l-1.413,18.514h-45.661l-1.413-18.514H1208.4Z"/><rect class="c" width="55.087" height="14.193" transform="translate(1211.694 7408.311) rotate(180)"/><rect class="a" width="351.461" height="69.341" transform="translate(1136.655 7457.407) rotate(180)"/><rect class="e" width="351.461" height="69.341" transform="translate(1136.655 7457.407) rotate(180)"/><rect class="a" width="34.342" height="69.341" transform="translate(1105.379 7457.407) rotate(180)"/><rect class="a" width="14.331" height="69.341" transform="translate(1058.303 7457.407) rotate(180)"/><rect class="a" width="34.342" height="69.341" transform="translate(851.486 7457.407) rotate(180)"/><rect class="a" width="351.461" height="51.548" transform="matrix(0.257, -0.966, 0.966, 0.257, 668.696, 7549.929)"/><rect class="d" width="34.342" height="51.548" transform="matrix(0.257, -0.966, 0.966, 0.257, 676.729, 7519.703)"/><rect class="d" width="34.342" height="51.548" transform="matrix(0.257, -0.966, 0.966, 0.257, 741.945, 7274.329)"/><rect class="a" width="407.049" height="34.67" transform="translate(1153.859 7563.187) rotate(180)"/><g class="f"><rect width="16.597" height="34.67" transform="translate(804.014 7563.187) rotate(180)"/><rect width="2.179" height="34.67" transform="translate(817.306 7563.187) rotate(180)"/><rect width="2.179" height="34.67" transform="translate(776.305 7563.187) rotate(180)"/><rect width="16.597" height="34.67" transform="translate(1087.218 7563.187) rotate(180)"/><rect width="2.179" height="34.67" transform="translate(1100.51 7563.187) rotate(180)"/><rect width="2.179" height="34.67" transform="translate(1110.054 7563.187) rotate(180)"/><rect width="2.179" height="34.67" transform="translate(1119.598 7563.187) rotate(180)"/><rect width="2.179" height="34.67" transform="translate(1059.509 7563.187) rotate(180)"/></g><rect class="g" width="243.795" height="51.741" transform="translate(779.297 7336.325)"/><rect class="g" width="138.991" height="51.741" transform="translate(1023.092 7336.325)"/><rect class="h" width="243.795" height="41.003" transform="translate(779.297 7341.694)"/><path class="i" d="M795.076,7350.129q28.5-.434,57-.6l57-.185,57,.182q28.5.159,57,.607-28.5.439-57,.608l-57,.182-57-.184Q823.578,7350.576,795.076,7350.129Z"/><path class="i" d="M795.076,7358.173q28.5-.434,57-.6l57-.185,57,.182q28.5.159,57,.607-28.5.439-57,.608l-57,.182-57-.185Q823.578,7358.62,795.076,7358.173Z"/><path class="i" d="M795.076,7366.217q28.5-.433,57-.6l57-.184,57,.181q28.5.16,57,.608-28.5.439-57,.608l-57,.182-57-.185Q823.578,7366.664,795.076,7366.217Z"/><path class="i" d="M795.076,7374.262q28.5-.435,57-.6l57-.185,57,.182q28.5.159,57,.608-28.5.438-57,.607l-57,.182-57-.184Q823.578,7374.708,795.076,7374.262Z"/><rect class="c" width="272.794" height="71.11" transform="translate(1191.312 7528.517) rotate(180)"/><rect class="c" width="143.464" height="71.11" transform="translate(918.517 7528.517) rotate(180)"/><rect class="h" width="272.794" height="56.352" transform="translate(1191.312 7521.138) rotate(180)"/><path class="i" d="M1178.093,7509.545q-23.877.434-47.756.6l-116.308.184-47.756-.182q-23.877-.159-47.756-.607,23.878-.439,47.756-.608l47.756-.182,116.308.185Q1154.215,7509.1,1178.093,7509.545Z"/><path class="i" d="M1178.093,7498.489q-23.877.435-47.756.605l-116.308.185-47.756-.182q-23.877-.159-47.756-.608,23.878-.438,47.756-.608l47.756-.181,116.308.184Q1154.215,7498.043,1178.093,7498.489Z"/><path class="i" d="M1178.093,7487.434q-23.877.435-47.756.6l-116.308.185-47.756-.182q-23.877-.159-47.756-.608,23.878-.438,47.756-.608l47.756-.181,116.308.184Q1154.215,7486.988,1178.093,7487.434Z"/><path class="i" d="M1178.093,7476.379q-23.877.435-47.756.6l-116.308.184-47.756-.181q-23.877-.159-47.756-.608,23.878-.438,47.756-.608l47.756-.181,116.308.184Q1154.215,7475.931,1178.093,7476.379Z"/><path class="b" d="M1187.159,7064.5s-6.592,11.917-12.8,11.118c-.445-.057-.886-.138-1.328-.211a.047.047,0,0,0-.032-.056c-9.3-2.694-18.028-7.138-27.1-10.449-6.9-2.517-14.055-4.517-21.427-4.853a48.215,48.215,0,0,0-20.345,3.646,61.513,61.513,0,0,0-22.236,15.99,92.11,92.11,0,0,0-10.208,11.555c-8.091-4.252-18.6-4.8-25.624.751a40.911,40.911,0,0,0-29.041-10.784,40.21,40.21,0,0,0-18.143,5.361c-.241.134-.475.279-.715.416.153-.11.3-.224.456-.332,6.138-4.322,13.033-7.809,20.686-7.969,7.435-.156,15,2.391,21.434,5.976a.01.01,0,1,0,.009-.018c-6.218-3.588-12.8-6.4-20.079-6.647-6.951-.237-13.436,2.193-19.273,5.818a116.334,116.334,0,0,0-11.021,8.122c-3.284,2.219-6.55,4.467-10.014,6.4-6.351,3.55-13.893,7.017-21.075,4.863-22.326-6.7-59.724-55.367-88.185-30.715a.125.125,0,0,0-.154-.167c-13.891,4.317-26.986,19.6-27.841,34.713-1.844,32.574,33.457,62.744,33.763,70.073.427,10.278-1.532,20.527-1.574,30.781-.746,7.517-.924,15.062,1.008,22.427a33.983,33.983,0,0,0,23.13,23.907c.213.063.275-.265.071-.334a34.143,34.143,0,0,1-17.253-12.8c-5.141-7.41-6.548-16.1-6.474-24.846.031.241.055.482.086.724,4.068,32.027,34.165,36.043,40.019,37.227a76.657,76.657,0,0,0-3.022,16.429c-.751,12.883,4.367,24.062,15.173,31.315,11.333,7.606,22.246,1.938,22.926,2.074a17.078,17.078,0,0,0,9.066,14.071,21.531,21.531,0,0,0,12.888,2.114c28.27,9.195,57.152-10.269,67.913-44.076,0,0,39.177,2.6,45.358-45.8,0,0,72.069-26.361,75.036-108.281C1161.212,7122.034,1199.213,7100.826,1187.159,7064.5Zm-94.133,6.361c10.641-7.59,23.581-11.382,36.686-9.436,14.949,2.219,28.524,9.779,42.956,13.924-5.578-.963-10.919-3.011-16.261-4.834a152.377,152.377,0,0,0-20.947-5.538c-11.652-2.194-24.292-3.079-35.351,1.984A58.016,58.016,0,0,0,1093.026,7070.858ZM951.358,7304.179a26.258,26.258,0,0,0,19.131,15.132,19.543,19.543,0,0,1-9.239-1.683A17.03,17.03,0,0,1,951.358,7304.179Z"/><path class="b" d="M1038.65,7275.673a34.477,34.477,0,0,0,11.929,1.254,30.156,30.156,0,0,0,11.36-3.086,35.117,35.117,0,0,0,9.5-7.065,63.562,63.562,0,0,0,7.485-9.5,39.845,39.845,0,0,1-6.448,10.452,33.524,33.524,0,0,1-4.457,4.348,32.344,32.344,0,0,1-5.274,3.38,27.655,27.655,0,0,1-12.109,2.872A26.522,26.522,0,0,1,1038.65,7275.673Z"/><path class="d" d="M867.1,7074.755a66.8,66.8,0,0,0-8.409,10.119,53.954,53.954,0,0,0-6.082,11.62,34.03,34.03,0,0,0-2.231,12.829,54.373,54.373,0,0,0,1.574,12.99c2.032,8.529,6.262,16.357,11.278,23.519,2.5,3.6,5.19,7.074,7.8,10.618a67.439,67.439,0,0,1,7.057,11.217l.655,1.539.559,1.581a14.8,14.8,0,0,1,.543,3.35,52.906,52.906,0,0,1-.123,6.644c-.311,4.4-.832,8.768-1.276,13.139-.879,8.726-1.681,17.525-.8,26.239a31.078,31.078,0,0,0,3.656,12.441,42.309,42.309,0,0,0,8.275,10.1,67.153,67.153,0,0,0,10.541,7.837,79.2,79.2,0,0,0,11.759,5.919,79.413,79.413,0,0,1-11.868-5.737,67.488,67.488,0,0,1-10.716-7.705,42.6,42.6,0,0,1-8.466-10.141,31.666,31.666,0,0,1-3.845-12.638,82.554,82.554,0,0,1-.344-13.226c.188-4.4.582-8.792,1.02-13.169s.938-8.745,1.234-13.115a52.455,52.455,0,0,0,.1-6.533,14.023,14.023,0,0,0-.515-3.144l-.545-1.526-.633-1.5a66.8,66.8,0,0,0-6.936-11.088c-2.6-3.539-5.285-7.026-7.785-10.658-5.014-7.219-9.318-15.15-11.276-23.813a55,55,0,0,1-1.474-13.144,34.341,34.341,0,0,1,2.381-12.976,54.322,54.322,0,0,1,6.3-11.593A66.957,66.957,0,0,1,867.1,7074.755Z"/><path class="d" d="M872.088,7071.218a36.4,36.4,0,0,1,5.935-.661,44.1,44.1,0,0,1,5.977.169,42.986,42.986,0,0,1,11.638,2.718,41.786,41.786,0,0,1,10.376,5.975c3.13,2.472,6.2,5.009,9.3,7.513,6.2,5,12.425,9.963,19.025,14.391a107.108,107.108,0,0,0,10.205,6.114,49.935,49.935,0,0,0,11.014,4.279,24.485,24.485,0,0,0,5.81.741,15.3,15.3,0,0,0,5.705-.981,45.385,45.385,0,0,0,10.1-6.1c6.351-4.756,12.479-9.971,19.546-13.789a46.22,46.22,0,0,1,11.136-4.446,37.123,37.123,0,0,1,11.93-1.018,41.575,41.575,0,0,1,11.635,2.743,64.989,64.989,0,0,1,10.653,5.4,64.881,64.881,0,0,0-10.727-5.2,41.3,41.3,0,0,0-11.593-2.519,36.849,36.849,0,0,0-11.763,1.126,45.678,45.678,0,0,0-10.949,4.5,92.107,92.107,0,0,0-9.919,6.56c-3.188,2.375-6.281,4.88-9.477,7.277a46.036,46.036,0,0,1-10.275,6.245,16.11,16.11,0,0,1-5.995,1.054,25.215,25.215,0,0,1-6.014-.746,50.689,50.689,0,0,1-11.193-4.388,107.776,107.776,0,0,1-10.265-6.194c-6.613-4.484-12.869-9.449-19.006-14.531-3.073-2.536-6.118-5.1-9.216-7.6a41.553,41.553,0,0,0-10.192-6.01,42.71,42.71,0,0,0-11.5-2.9,44.3,44.3,0,0,0-5.953-.273A36.376,36.376,0,0,0,872.088,7071.218Z"/><path class="d" d="M921.537,7253.063a51.78,51.78,0,0,0-2.353,8.22,50.364,50.364,0,0,0-1.02,8.457,36.035,36.035,0,0,0,3.063,16.522,29.646,29.646,0,0,0,4.56,7.089,35.207,35.207,0,0,0,2.945,3.043c.53.468,1.091.9,1.633,1.355l.817.678.869.611a55.587,55.587,0,0,0,15.319,7.412c-1.372-.4-2.751-.787-4.118-1.216-1.336-.512-2.7-.959-4.02-1.526-1.292-.623-2.639-1.143-3.873-1.886l-1.887-1.048-1.8-1.19-.9-.6-.851-.668c-.562-.453-1.136-.893-1.682-1.365a36.113,36.113,0,0,1-3.043-3.087,30.336,30.336,0,0,1-4.749-7.242,35.885,35.885,0,0,1-2.94-16.915A48.007,48.007,0,0,1,921.537,7253.063Z"/><path class="d" d="M982.773,7257.112a109.2,109.2,0,0,0,13.3,6.052,111.968,111.968,0,0,0,13.945,4.332c9.445,2.246,19.323,3.23,28.916,1.583a44.477,44.477,0,0,0,13.684-4.711c.533-.287,1.079-.55,1.6-.856l1.513-1a25.629,25.629,0,0,0,2.948-2.111c.921-.784,1.9-1.508,2.773-2.34l2.547-2.588a12.755,12.755,0,0,0,1.185-1.373l1.137-1.417,1.136-1.416c.354-.491.668-1.011,1-1.514l1.983-3.046,1.7-3.215.85-1.608c.256-.549.479-1.114.719-1.671l1.421-3.35a15.933,15.933,0,0,0,.63-1.706l.577-1.727,1.153-3.454.064-.188.18-.076a121.452,121.452,0,0,0,15.3-7.938,146.7,146.7,0,0,0,14.234-9.771,140.379,140.379,0,0,0,24.422-24.327,137.294,137.294,0,0,0,9.618-14.344,126.513,126.513,0,0,0,15.912-49.023,130.33,130.33,0,0,1-7.976,33.637,132.12,132.12,0,0,1-7.483,15.645,137.82,137.82,0,0,1-9.6,14.452,141.071,141.071,0,0,1-24.43,24.559,147.463,147.463,0,0,1-14.266,9.889,112.366,112.366,0,0,1-15.436,7.982l.243-.264-1.18,3.48-.59,1.74a16.236,16.236,0,0,1-.644,1.72l-1.45,3.379c-.246.561-.474,1.13-.735,1.684l-.867,1.623-1.735,3.245-2.022,3.077c-.343.508-.664,1.033-1.025,1.528l-1.158,1.432-1.159,1.432a13.149,13.149,0,0,1-1.209,1.387l-2.6,2.614c-.894.84-1.887,1.573-2.826,2.363a26.06,26.06,0,0,1-3,2.13l-1.541,1.011c-.53.308-1.086.573-1.627.862a45.064,45.064,0,0,1-13.881,4.709c-9.7,1.607-19.644.608-29.1-1.75a112.361,112.361,0,0,1-13.923-4.527A109.436,109.436,0,0,1,982.773,7257.112Z"/><path class="d" d="M862.779,7137.15c2.548,4.428,6.165,8.073,9.725,11.687s7.252,7.155,10.5,11.117a33.259,33.259,0,0,1,4.269,6.4,16.422,16.422,0,0,1,.766,1.786,10.774,10.774,0,0,1,.588,1.874,20.162,20.162,0,0,1,.315,3.882,79.792,79.792,0,0,1-2.387,15.142c-1.164,4.963-2.451,9.886-3.542,14.847a74.97,74.97,0,0,0-2.088,15.018,25.168,25.168,0,0,0,.252,3.755,32.737,32.737,0,0,0,.935,3.65,34.617,34.617,0,0,0,3.176,6.861A33.448,33.448,0,0,0,895.8,7244a32.939,32.939,0,0,1-10.874-10.6,34.782,34.782,0,0,1-3.334-6.912,32.782,32.782,0,0,1-1.015-3.725,25.67,25.67,0,0,1-.32-3.85,47.925,47.925,0,0,1,.588-7.659c.372-2.53.861-5.036,1.4-7.53,1.072-4.987,2.331-9.922,3.47-14.875a79.259,79.259,0,0,0,2.444-14.959,19.489,19.489,0,0,0-.281-3.717,10.017,10.017,0,0,0-.546-1.763,15.647,15.647,0,0,0-.728-1.723,35.026,35.026,0,0,0-4.114-6.317c-3.148-3.968-6.773-7.555-10.286-11.238-1.738-1.861-3.5-3.709-5.11-5.684A35.839,35.839,0,0,1,862.779,7137.15Z"/><path class="d" d="M1059.494,7220.553a113.707,113.707,0,0,0,15.227-4.961,141.889,141.889,0,0,0,40.848-24.763,133.731,133.731,0,0,0,11.346-11.249,136.146,136.146,0,0,0,9.8-12.624,122.027,122.027,0,0,0,8.075-13.8c1.268-2.353,2.309-4.813,3.406-7.249.575-1.207,1.02-2.468,1.511-3.71l1.464-3.735a123,123,0,0,1-13.9,28.869c-1.527,2.2-2.995,4.451-4.679,6.542-1.593,2.159-3.354,4.183-5.085,6.233a133.675,133.675,0,0,1-11.368,11.378,135.057,135.057,0,0,1-26.58,18,138.828,138.828,0,0,1-14.686,6.51A106.66,106.66,0,0,1,1059.494,7220.553Z"/><path class="d" d="M1058.811,7119.3c.755-1.366,1.669-2.639,2.554-3.924s1.817-2.542,2.759-3.788q2.823-3.741,5.865-7.314a137.064,137.064,0,0,1,13.122-13.4,86.952,86.952,0,0,1,15.236-10.972,49.742,49.742,0,0,1,17.729-6.178,64.533,64.533,0,0,1,18.753,1.179c6.158,1.162,12.2,2.773,18.279,4.149a77.753,77.753,0,0,0,9.19,1.577,25.391,25.391,0,0,0,9.211-.52,14.2,14.2,0,0,0,7.616-4.977,24.427,24.427,0,0,0,4.046-8.358,24.535,24.535,0,0,1-3.878,8.489,14.527,14.527,0,0,1-7.669,5.254,25.684,25.684,0,0,1-9.375.657,78.144,78.144,0,0,1-9.281-1.47c-6.126-1.279-12.156-2.91-18.282-4.025a63.865,63.865,0,0,0-18.5-1.095,48.949,48.949,0,0,0-17.454,6.007,90.74,90.74,0,0,0-15.18,10.783,137.947,137.947,0,0,0-13.241,13.179q-3.111,3.494-6.016,7.166-1.453,1.835-2.84,3.721C1060.538,7116.7,1059.6,7117.948,1058.811,7119.3Z"/><path class="d" d="M1023.81,7276.288a49.8,49.8,0,0,1-9.312,2.481,66.216,66.216,0,0,1-9.611.947,70.416,70.416,0,0,1-19.165-2.253,81.8,81.8,0,0,1-33.634-18.511,92,92,0,0,1-12.756-14.53c-1.9-2.61-3.6-5.354-5.268-8.113-1.612-2.792-3.154-5.626-4.538-8.537a137.008,137.008,0,0,1-11.683-36.679,130.89,130.89,0,0,0,4.947,18.607,141.973,141.973,0,0,0,7.336,17.779c5.672,11.478,13.073,22.208,22.546,30.833a81.948,81.948,0,0,0,33.22,18.509,70.167,70.167,0,0,0,18.989,2.473,65.907,65.907,0,0,0,9.583-.733A49.724,49.724,0,0,0,1023.81,7276.288Z"/><path class="j" d="M1194.341,7483.928c-4.384-.3-114.618-45.738-117.721-50.12-.335-.485,2.01-5.192,6.159-18.261.194-.625-1.2-4.059-3.548-9.073-8.809-18.828-30.873-60.137-30.873-60.137l75.682-21.745,28.337,75.638,7.374,19.667s34.364,41.5,37.269,46.684C1199.886,7471.761,1198.724,7484.228,1194.341,7483.928Z"/><path class="b" d="M1194.337,7483.929c-4.377-.306-114.621-45.734-117.722-50.126-.334-.476,2.01-5.192,6.169-18.256a.047.047,0,0,1,.017-.038c18.192,9.5,94.567,49.06,100.476,45.585,3.516-2.062,1.324-8.594-1.571-14.355,7.392,9.176,14.106,17.67,15.308,19.841C1199.881,7471.76,1198.728,7484.223,1194.337,7483.929Z"/><path class="d" d="M1144.476,7367.4l-12.724,5.619-41.067,18.137-22.434,9.914s-30.121-76.873-46.028-98.308l-.04-.038a28.129,28.129,0,0,0-2.951-3.461l-.032-.015a16.8,16.8,0,0,0-5.669-1.981l-.032-.014c-23.507-5.062-104.225-4.6-159.185-13.226l8.252-48.74,32.849-1.121c1.415,1.733,5.993,6.315,7.86,6.082,59.827-7.472,136.934-21.039,167.458-2.067C1106.475,7260.4,1144.476,7367.4,1144.476,7367.4Z"/><path class="b" d="M1133.043,7357.875c-12.8,5.253-9.195,3.574-21.939,8.962-6.236,2.637-37.612,15.816-43.02,19.244a.138.138,0,0,0,.106.245c6.2-1.6,37.282-15.459,43.469-18.209,12.643-5.62,8.955-4.137,21.537-9.891A.192.192,0,1,0,1133.043,7357.875Z"/><path class="b" d="M1090.685,7391.154l-22.434,9.914s-30.121-76.873-46.028-98.308Z"/><path class="b" d="M1076.614,7391.673c-7.706-16.043-42.265-94.913-50.24-98.624-7.257-3.377-157.7-13.984-159.92-14.171-.159-.014-.194.231-.033.244,17.793,1.4,155.086,13.458,158.858,15.364,7.843,3.963,49.417,95.591,50.466,97.519C1076.026,7392.521,1076.879,7392.224,1076.614,7391.673Z"/><path class="d" d="M800.165,7237.417s-9.409,53.87,11.06,78.863c28.869,35.249,214.426,25.691,242.662,16.565s29.119-54.69-1.748-65.248c-29.357-10.042-159.549-15.813-162.632-17.043s-12.576-15.759-12.576-15.759Z"/><path class="b" d="M836.1,7252.381c-.036-.217-.374-.147-.373.061a25.083,25.083,0,0,1-5.873,16.136c-4.324,4.992-10.7,7.788-16.477,10.71-.556.281-.135,1.15.441.977a51.014,51.014,0,0,0,10.2-4.4,24.747,24.747,0,0,0,7.673-6.379A21.948,21.948,0,0,0,836.1,7252.381Z"/><path class="b" d="M888.265,7247.719c-1.289-1.647-2.694-3.213-4.039-4.814-3.181-3.785-6.377-7.587-9.711-11.239-.315-.345-.933.144-.643.523,2.245,2.935,4.622,5.777,6.96,8.639q1.8,2.2,3.612,4.387a27.66,27.66,0,0,1,3.371,4.277c.871,1.627-.274,3.018-1.961,3.2a5.854,5.854,0,0,1-4.061-1.5c-2.633-2.016-4.7-4.9-6.891-7.366-1.34-1.507-2.679-3.013-4.039-4.5-1.446-1.583-2.988-3.084-4.429-4.664-.094-.1-.272.041-.19.154,1.261,1.726,2.425,3.535,3.687,5.266s2.542,3.444,3.845,5.145q1.849,2.413,3.823,4.729a15.789,15.789,0,0,0,3.879,3.47c2.416,1.421,6.61,1.727,7.895-1.393C890.008,7250.493,889.214,7248.93,888.265,7247.719Z"/><path class="b" d="M1050.025,7333.015c-9.722.181-19.438.746-29.161.954q-14.465.308-28.935.169-29.058-.273-58.067-2.258c-19.531-1.35-40.6-3.295-60-5.983-9.283-1.286-18.693-2.356-27.867-4.329-8.277-1.781-15.784-5.219-21.981-11.229-12.564-12.186-17.45-30.1-19.456-47.223-.27-2.3-.49-4.6-.676-6.9-.013-.157-.249-.153-.239.006,1.134,17.553,3.864,35.853,14.9,49.965a43.849,43.849,0,0,0,17.984,13.963c8.688,3.482,18.332,4.3,27.505,5.542,19.479,2.642,40.627,4.682,60.218,6.2q29.573,2.293,59.246,2.774c19.767.291,39.555.013,59.3-.958,2.412-.119,4.816-.261,7.223-.471A.111.111,0,0,0,1050.025,7333.015Z"/><path class="b" d="M1075.98,7290.526a31.314,31.314,0,0,0-13.019-18.623c-7-4.778-15.368-6.952-23.653-8.158-9.373-1.363-18.868-2.059-28.293-2.974q-29.013-2.818-58.064-5.207c-19.354-1.592-61.044-4.83-63.389-4.921-.2-.008-.246.339-.039.362,18.684,2.076,35.683,3.858,54.4,5.559q28.22,2.563,56.419,5.359,14.051,1.389,28.1,2.83c8.675.9,17.6,1.779,25.739,5.131,6.982,2.875,13.258,7.5,16.819,14.29a33.5,33.5,0,0,1,2.789,21.617,38.027,38.027,0,0,1-9.033,18.277,32.389,32.389,0,0,1-16.924,10.217c-1.712.369-3.778.634-5.354.949-.119.023-.241.276-.121.279,13.994.354,26.939-9.865,31.993-22.647A37.445,37.445,0,0,0,1075.98,7290.526Z"/><path class="j" d="M869.894,7166.976c7.278,18.741,36.723,75.461,55.625,78.116,12.4,1.742,68.457,3.132,76.085-9.168,3.324-5.36-10-42.193-16.472-40.3s-48.277,2.072-53.239,1.021c-4.933-1.045-34.742-35.987-49.474-48.317C859.713,7129.328,864.174,7152.249,869.894,7166.976Z"/><path class="a" d="M886.76,7212.258l27.7-37.143s-19.874-21.817-35.141-31.507c-11.649-7.393-16.664-1.409-14.794,7.553C870.761,7181.041,886.76,7212.258,886.76,7212.258Z"/><path class="b" d="M907.46,7171.911c-4.671,5.417-16.916,20.477-23.594,31.3-.04.065.189.246.238.188,6.915-8.169,19.514-25.422,23.7-31.223C907.88,7172.071,907.548,7171.809,907.46,7171.911Z"/><path class="h" d="M876.189,7156.245a1.6,1.6,0,1,1-1.6-1.6A1.6,1.6,0,0,1,876.189,7156.245Zm15.19,26.491a1.6,1.6,0,1,0,1.6,1.6A1.6,1.6,0,0,0,891.379,7182.736Z"/><path class="k" d="M905.858,7186.64l-19.1,25.618s-15.995-31.215-22.234-61.106c-1.1-5.2.151-9.4,3.668-10.55Z"/><path class="j" d="M892.259,7216.394l3.156,17.77-95.25,3.253s19.851-73.56,38.181-92.4c12.4-12.745,26.515-11.379,35.275-1.99,2.217,2.376,23.3,33.75,25.791,47.566C901.579,7202.785,892.259,7216.394,892.259,7216.394Z"/><path class="a" d="M803.877,7217.9l66.176-.392,25.031,7.551-2.83-8.667s9.317-13.6,7.152-25.793c-2.483-13.818-23.574-45.189-25.783-47.573-8.765-9.393-22.883-10.744-35.271,2C825.631,7158.077,810.739,7195.873,803.877,7217.9Z"/><path class="h" d="M842.617,7156.245a1.6,1.6,0,1,1-1.6-1.6A1.6,1.6,0,0,1,842.617,7156.245Zm31.975-1.6a1.6,1.6,0,1,0,1.6,1.6A1.6,1.6,0,0,0,874.592,7154.649Zm-67.144,55.922a1.6,1.6,0,1,0,1.6,1.6A1.6,1.6,0,0,0,807.448,7210.571Zm33.572,0a1.6,1.6,0,1,0,1.6,1.6A1.6,1.6,0,0,0,841.02,7210.571Zm33.572,0a1.6,1.6,0,1,0,1.6,1.6A1.6,1.6,0,0,0,874.592,7210.571Zm-50.358-27.835a1.6,1.6,0,1,0,1.6,1.6A1.6,1.6,0,0,0,824.234,7182.736Zm33.572,0a1.6,1.6,0,1,0,1.6,1.6A1.6,1.6,0,0,0,857.806,7182.736Zm33.573,0a1.6,1.6,0,1,0,1.6,1.6A1.6,1.6,0,0,0,891.379,7182.736Z"/><path class="b" d="M860.6,7208.284a70.417,70.417,0,0,1,12.23,2.536c1.991.636,3.944,1.379,5.9,2.175.973.4,1.95.754,2.934,1.1a11.218,11.218,0,0,0,3.15.746c.095,0,.092.177,0,.179a14.828,14.828,0,0,1-5.929-.775c-2.024-.621-4.024-1.356-6.043-2-4.073-1.3-8.145-2.606-12.287-3.55C860.36,7208.653,860.409,7208.258,860.6,7208.284Z"/><path class="b" d="M850.4,7212.65a74.54,74.54,0,0,1,10.227-.523,49.822,49.822,0,0,1,5.1.407q1.218.153,2.431.352c.89.144,1.765.434,2.656.563.093.013.092.189,0,.179-.843-.09-1.7-.011-2.549-.042s-1.7-.07-2.551-.1c-1.7-.063-3.4-.1-5.107-.185-3.408-.165-6.8-.288-10.213-.309C850.207,7212.989,850.223,7212.67,850.4,7212.65Z"/><path class="b" d="M872.352,7221.375a3.612,3.612,0,0,0-1.289,1.142,5.416,5.416,0,0,0-.816,1.488,7.916,7.916,0,0,0-.458,3.315c.055.542.276,1.007.677,1.086.409.133.765-.228.97-.74a4.333,4.333,0,0,0,.257-1.657,3.4,3.4,0,0,0-.386-1.679,3.992,3.992,0,0,1,.612,3.5,1.97,1.97,0,0,1-.5.888,1.213,1.213,0,0,1-1.085.31,1.337,1.337,0,0,1-.914-.654,2.6,2.6,0,0,1-.307-.967,6.378,6.378,0,0,1,.073-1.862,6.207,6.207,0,0,1,.531-1.77A4.3,4.3,0,0,1,872.352,7221.375Z"/><path class="j" d="M854.712,7139.565c-.249,2.692,2.611,16,10.5,17.9,4.057.975,8.025-13.087,8.025-13.087l.485-.981,6.772-13.729-16.508-17.131S854.783,7138.8,854.712,7139.565Z"/><path class="b" d="M860.566,7122.34a30.758,30.758,0,0,0,13.164,21.06l6.773-13.73-16.519-17.14S862.41,7117.015,860.566,7122.34Z"/><path class="j" d="M906.975,7113.046c-4.857,26.424-21.233,26.5-26.93,25.446-5.171-.957-22.659-4.871-20.559-31.656s15.923-32.881,27.866-31.319S911.832,7086.62,906.975,7113.046Z"/><path class="b" d="M861.134,7106.516c4.633,2.023,9.109-8.637,9.109-8.637s21.524,2.554,28.172-13.628c0,0,.384,11.674,9.706,19.648,0,0,4.666-18.512-8.8-26.334,0,0-16.078-11.849-30.4-.538S858.025,7105.158,861.134,7106.516Z"/><path class="b" d="M898.85,7083.038a18.945,18.945,0,0,1-3.156,7.352,19.733,19.733,0,0,1-5.853,5.6,16.616,16.616,0,0,1-1.791.978l-.908.464c-.314.129-.635.242-.955.356-.643.219-1.276.467-1.924.661-.66.152-1.323.289-1.985.42-.331.063-.659.14-.992.19l-1.006.084-2.006.162c-1.339-.019-2.676-.108-4-.214,1.329-.168,2.648-.2,3.951-.377l1.94-.327.966-.161c.318-.076.629-.179.942-.266.626-.185,1.249-.363,1.878-.526.611-.212,1.2-.476,1.806-.71l.9-.357.855-.454a16.026,16.026,0,0,0,1.682-.947,22.607,22.607,0,0,0,5.753-5.133,23.437,23.437,0,0,0,2.2-3.231A22.779,22.779,0,0,0,898.85,7083.038Z"/><path class="j" d="M864.034,7108.406s-3.431-9.641-7.655-8.634-3.194,13.9.673,16.686a4.542,4.542,0,0,0,6.517-.741Z"/><path class="b" d="M856.766,7103.46c-.067-.025-.107.068-.054.109,2.684,2.054,3.5,5.292,3.819,8.5-.591-1.365-1.646-2.313-3.437-1.656-.094.034-.053.178.037.184a2.792,2.792,0,0,1,2.707,1.756,13.459,13.459,0,0,1,.761,2.789c.067.309.595.3.577-.041,0-.024,0-.051-.005-.076C862.306,7111.2,860.794,7104.985,856.766,7103.46Z"/><path class="c" d="M857.806,7115.631a1.153,1.153,0,1,0,1.159-1.148A1.155,1.155,0,0,0,857.806,7115.631Z"/><path class="b" d="M858.414,7115.634a.546.546,0,1,0,.548-.544A.545.545,0,0,0,858.414,7115.634Z"/><path class="c" d="M856.233,7113.74a.816.816,0,1,0,.819-.812A.815.815,0,0,0,856.233,7113.74Z"/><path class="b" d="M902.992,7108.564a17.792,17.792,0,0,1-1.71-.764,3.023,3.023,0,0,1-1.595-1.112.966.966,0,0,1,.249-1.151,2.391,2.391,0,0,1,2.423-.049,3.515,3.515,0,0,1,1.894,1.68A1.029,1.029,0,0,1,902.992,7108.564Z"/><path class="b" d="M884.266,7104.044a17.368,17.368,0,0,0,1.873.008,3.019,3.019,0,0,0,1.911-.355.963.963,0,0,0,.247-1.151,2.393,2.393,0,0,0-2.187-1.044,3.516,3.516,0,0,0-2.418.75A1.029,1.029,0,0,0,884.266,7104.044Z"/><path class="b" d="M887,7110.457c0-.071-.158.059-.17.134-.289,1.824-.928,3.864-2.683,4.153-.055.009-.067.1-.005.1C886.2,7114.949,887.022,7112.232,887,7110.457Z"/><path class="b" d="M885.746,7108.254c-2.874-.779-4.221,5.026-1.558,5.748C886.808,7114.712,888.155,7108.907,885.746,7108.254Z"/><path class="b" d="M884.535,7108.3c-.583.211-1.214.676-1.839.594-.724-.094-1.117-.826-1.444-1.518-.033-.072-.1-.033-.114.044-.275,1.108-.112,2.349,1.042,2.792,1.053.4,2.062-.4,2.6-1.454C884.879,7108.559,884.77,7108.211,884.535,7108.3Z"/><path class="b" d="M897.853,7112.121c.026-.067.127.111.111.185-.381,1.807-.514,3.941,1.023,4.838.047.028.026.118-.033.1C897,7116.6,897.2,7113.772,897.853,7112.121Z"/><path class="b" d="M899.814,7110.512c2.963.3,2.147,6.2-.6,5.925C896.515,7116.165,897.331,7110.261,899.814,7110.512Z"/><path class="b" d="M900.93,7110.984c.469.405.893,1.065,1.506,1.212.71.17,1.338-.373,1.89-.9.058-.055.1,0,.092.082-.139,1.133-.735,2.234-1.971,2.235-1.127,0-1.783-1.11-1.908-2.287C900.515,7111.106,900.741,7110.821,900.93,7110.984Z"/><path class="b" d="M881.535,7124.551c.3.541.551,1.237,1.175,1.483a4.874,4.874,0,0,0,2.033.125.064.064,0,0,1,.049.113,2.484,2.484,0,0,1-2.53.288,1.965,1.965,0,0,1-.921-1.979C881.345,7124.47,881.492,7124.472,881.535,7124.551Z"/><path class="b" d="M892.337,7119.938s-.413,2.739-.779,3.98c-.035.117-.351.083-.78-.017-.022,0-.035,0-.049-.013a6.152,6.152,0,0,1-5.08-3.9.134.134,0,0,1,.235-.118,9.271,9.271,0,0,0,4.933,3.135c.189-.318.551-4.715.752-4.671a11.274,11.274,0,0,1,2.631,1.47c1.026-5.68,1.132-11.479,2.239-17.12a.176.176,0,0,1,.348.016c.318,6.085-.719,12.648-1.628,18.541C895.052,7121.983,892.772,7120.3,892.337,7119.938Z"/><path class="b" d="M890.068,7123.142a6.377,6.377,0,0,1-2.942,1.33,2.871,2.871,0,0,1-1.72-.3c-1.148-.615-.909-1.747-.454-2.655a6.848,6.848,0,0,1,.9-1.342A8.259,8.259,0,0,0,890.068,7123.142Z"/><path class="l" d="M887.126,7124.472a2.871,2.871,0,0,1-1.72-.3c-1.148-.615-.909-1.747-.454-2.655A2.962,2.962,0,0,1,887.126,7124.472Z"/><path class="j" d="M920.542,7219.71c1.048,6.3-17.046,7.738-21.4,9.043-4.35,1.329-4.81,2.565-2.361,3.492a7.413,7.413,0,0,0,1.548.264c-7.171-.253-31.431-4.349-31.431-4.349s12.981-6.885,20.012-9.589C893.913,7215.874,919.488,7213.388,920.542,7219.71Z"/><path class="h" d="M968.82,7187.716a61.048,61.048,0,0,1,11.525-6.5c5.382-2.048,17.24-5.445,19.336-6.652l3.611-.4L983.234,7250l-31.75,10.033-54.107-11.811,15.838-71.928,3.67-.462s6.886,1.778,12.551,2.667S954.532,7179.149,968.82,7187.716Z"/><path class="a" d="M946.811,7262.229l17.709-72.967-53.636-13.554-16.531,74.378Z"/><path class="e" d="M946.811,7262.229l17.709-72.967-53.636-13.554-16.531,74.378Z"/><path class="a" d="M946.811,7262.229h7.721l17.788-72.967h-7.8Z"/><path class="k" d="M946.811,7262.229h7.721l17.788-72.967h-7.8Z"/><path class="a" d="M954.532,7262.229l17.788-72.967,32.5-15.839-20.7,77.233Z"/><path class="e" d="M954.532,7262.229l17.788-72.967,32.5-15.839-20.7,77.233Z"/><path class="j" d="M938.441,7242.382c.667,5.618-7.661,8.931-8.23,9.147.51-.146,8.067-2.212,8.318,3.42.259,5.841-6.8,10.079-6.8,10.079s2.778.885,1.122,5.094c-2.4,6.025-15.815,10.012-23.318,10.433-7.5.445-36.588-4.183-40.838-4.881l-1.8-47.514s24.26,4.1,31.431,4.349c.024-.007.079,0,.1,0a121.576,121.576,0,0,0,14.938.019c7.853-.758,17.563-8.228,19.824-2.831,2.02,4.835-5.223,9.361-5.223,9.361S937.772,7236.58,938.441,7242.382Z"/><path class="b" d="M927.529,7239.1c-10.521,5.6-16.092,6.233-27.793,5.368-.228-.017-.3.319-.068.359,11.381,1.89,18.484,2.106,28.159-5.232C928.3,7239.237,928.03,7238.833,927.529,7239.1Z"/><path class="b" d="M930.59,7251.2c-11.435,4.864-17.472,5.6-29.794,5.6-.174,0-.192.295-.016.31,12.087,1.015,19.178,1.069,29.965-5.291C931.233,7251.526,931.113,7250.975,930.59,7251.2Z"/><path class="b" d="M931.561,7264.988c-11.411,3.91-17.995,5-29.957,3.465a.222.222,0,0,0-.083.435c12.045,2.757,20.271,1.452,30.122-3.54C932.314,7265.007,932.279,7264.742,931.561,7264.988Z"/><path class="j" d="M1005.423,7189.828c1.855,6.332,7.723,14.765,7.532,19.665a5.625,5.625,0,0,1-4.021,5.375s4.415,3.158,3.509,7.577c-.466,2.274-4.508,3.526-4.508,3.526s3.428,2.686,2.38,6.565c-.835,3.091-4.76,3.883-4.76,3.883s2.088,4.109.227,6.985c-3.772,5.832-30.912,1.5-33.509-9.167-1.21-4.971,5.362-3.553,5.362-3.553s-8.958-4.322-8.208-9.94,9.177-3.26,9.177-3.26-8.643-4.264-7.278-10.01c1.421-5.982,9.447-2.179,9.447-2.179s-5.382-5.055-3.329-9.215c3.389-6.869,13.365,4.042,19.555,3.579l4.862-9.31Z"/><path class="j" d="M1009.5,7199.246c-1.232-6.148,7.1-12.167,6.767-18.216-.452-8.183-10.591-1.852-14.4,9.319l-1.436,9.192Z"/><path class="b" d="M1004.953,7236.635a.072.072,0,0,1,.005.144c-9.274.75-19.694-1.268-27.692-6.13-.263-.159-.118-.655.205-.534C986.673,7233.549,995.114,7235.864,1004.953,7236.635Z"/><path class="b" d="M1008.058,7226.049c.107.008.1.186-.02.194-9.56.721-21.234-1.875-29.793-8.565-.294-.229-.327-.729.031-.491C984.3,7221.2,999.2,7225.4,1008.058,7226.049Z"/><path class="b" d="M980.3,7204.611c8.455,6.1,18.014,8.87,28.241,10.307.134.018.094.205-.022.219-5.2.661-11.619-.934-16.512-2.6a27.485,27.485,0,0,1-11.921-7.631C979.959,7204.765,980.12,7204.481,980.3,7204.611Z"/><path class="j" d="M824.755,7160.713c-18.513,25.11-45.1,81.286-36.326,96.194,6.355,10.793,68.845,19.395,83.3,18.757,6.3-.278,10.1-46.744,3.458-47.915-6.045-1.065-40.672-2.13-41.391-3.624-.81-1.684,12.476-48.976,16.151-68.921C855.366,7125.819,831.979,7150.913,824.755,7160.713Z"/><path class="a" d="M797.36,7189.946l45.783,7.128s10-27.767,11.43-45.792c1.091-13.754-6.544-15.391-13.592-9.549C817.48,7161.211,797.36,7189.946,797.36,7189.946Z"/><path class="h" d="M842.617,7156.245a1.6,1.6,0,1,1-1.6-1.6A1.6,1.6,0,0,1,842.617,7156.245Zm-18.383,26.491a1.6,1.6,0,1,0,1.6,1.6A1.6,1.6,0,0,0,824.234,7182.736Z"/><path class="b" d="M842.7,7189.387c-6.972-1.6-26.009-5.383-38.7-6.226-.077-.005-.13.282-.056.3,10.454,2.295,31.595,5.369,38.679,6.356C842.759,7189.834,842.836,7189.418,842.7,7189.387Z"/><path class="b" d="M843.618,7197.217c1.28-3.553,2.25-7.254,3.271-10.893.495-.959.991-1.919,1.429-2.905a21.408,21.408,0,0,0,1.358-3.939.053.053,0,0,0-.1-.033c-.262.619-.47,1.262-.722,1.886s-.527,1.239-.785,1.861c-.266.64-.546,1.274-.846,1.9.992-3.569,1.889-7.167,2.626-10.8a.083.083,0,0,0-.157-.052c-1.372,3.706-2.581,7.476-3.67,11.276-1.061,3.7-2.21,7.433-3.027,11.2-.644-.056-1.28-.119-1.93-.127a.151.151,0,0,0-.057.293c.71.229,1.425.388,2.15.564A.374.374,0,0,0,843.618,7197.217Z"/><path class="b" d="M840.17,7196.611l-3.587,15.472c-.59,2.578-1.165,5.161-1.667,7.747a37.062,37.062,0,0,0-.589,3.823c-.023.108.072.316-.068.1.018-.053-.121-.1-.043-.074l.192.052c.282.065.6.124.92.17.637.1,1.291.175,1.943.25,5.237.565,10.528.873,15.8,1.278l15.835,1.116-.322.075c1.985-1.1,4.008-2.091,6.039-3.08s4.089-1.916,6.166-2.8,4.2-1.676,6.347-2.371a27.987,27.987,0,0,1,6.6-1.445,31.529,31.529,0,0,0-6.464,1.844c-2.1.795-4.145,1.716-6.181,2.658-4.069,1.887-8.041,4.007-11.934,6.214l-.149.085-.173-.01c-10.581-.592-21.147-1.145-31.711-2.35-.662-.083-1.322-.167-1.991-.279-.336-.053-.668-.115-1.029-.2l-.286-.083a1.358,1.358,0,0,1-.481-.3,1.427,1.427,0,0,1-.191-.88,27.6,27.6,0,0,1,.7-4.007c.593-2.593,1.255-5.159,1.93-7.722C837.123,7206.759,838.617,7201.676,840.17,7196.611Z"/><path class="c" d="M760.743,7469.072a53.135,53.135,0,0,1-10.2,31.381l0,.007a53.385,53.385,0,1,1-43.181-84.769q2.2,0,4.349.175a53.035,53.035,0,0,1,23.356,7.569,53.363,53.363,0,0,1,25.676,45.637Z"/><path class="d" d="M718.889,7494.267c-.673,1.794.448,1.869.523,2.617s0,2.168-2.168,4.336-5.757,1.72-6.505,2.617-2.018,4.71-3.812,5.981-2.094.523-4.636,1.047-4.486,3.812-5.233,5.383.149,4.186-1.645,4.261-2.617-3.813-4.262-5.906a13.956,13.956,0,0,1-2.691-6.43c-.523-2.467.3-7.626,0-9.644s-5.682-5.608-7.626-8.075-4.635-7.4-4.486-9.046a6.7,6.7,0,0,1,2.243-4.113c.9-.672.523-1.046.673-1.644s.9-.748,1.046-1.5-.448-2.991-1.2-3.365-1.271.9-1.719.673-1.794-1.794-2.318-1.944-.374.972-1.121-.448-1.122-5.01-1.72-5.608-1.046,1.047-2.467,0-2.019-3.065-2.617-3.364-1.42.075-2.035-1.121.54-3.365,0-3.14-1.7,1.943-2,.3,1.495-7.178,1.2-10.168a11.952,11.952,0,0,1,2.841-8.673s.3-1.645.6-2.691,6.729-5.234,7.477-6.43a5.809,5.809,0,0,0,.528-2.126,53.134,53.134,0,0,1,31.607-10.359q2.2,0,4.349.175c.05.068.1.134.15.2a6.265,6.265,0,0,0,3.24,2.045c1.893.7,2.342,1.594,1.944,2.341a1.907,1.907,0,0,1-1.794.948c-.748.049-1.446-.35-2.243.15s-1.6,3.189-2.643,3.339-2.89-2.393-3.289-3.141.9-2.343.286-3.09-1.681-.6-3.377-.748-5.631.5-5.482,1.147,5.781-.1,5.931,1.2-4.136,3.489-4.884,3.29-1.745-1.5-2.841-1.645-1.994.748-2.684.848-1.5-.748-2.549-.549-1.3,1.1-1.845,1.446-1.844.348-1.994,1.145,1.645,1.247,2.094,1.745-.549,2.194-.1,2.542,3.24-2.093,3.938-2.691,1.3-3.19,2.79-3.14,1.995,2.591,2.493,2.841,1.6-.6,3.24-.25,2.79,3.939,3.089,5.035,1,2.193.4,2.642-3.29-.3-3.638-1,1.794-1.745,1.644-1.993a2.13,2.13,0,0,0-2.043-.208c-.648.391-.947,1.2-1.646,1.4s-2.542-1.894-3.039-1.3.5,2.493,1,2.941,2.343.7,2.492,1.2-1.245,1.594-2.941,1.5-3.089-1.4-3.738-.848-.3,1.993-.748,2.493-2.89.149-4.086,1.444-1.745,3.24-2.942,4.336-1.743-.3-3.339,1.247-1.843,4.984-1.894,6.18,0,2.143-.4,1.993a3.319,3.319,0,0,1-1.1-1.843c-.15-.648.35-1.745.35-2.143s-2.294-2.443-3.64-2.642-2.542.9-3.538,1.694-2.791.649-3.439,1.3-1.147,6.38-.649,7.725,1.147,1.346,2.743.648.7-2.044,1.644-1.745a2.226,2.226,0,0,1,1.445,2.093c0,.8-1.893,2.692-1.645,3.241s1.9-.1,2.692.149,1.2.748.948,2.792-.1,3.638,1.1,4.311,1.869-.972,2.392-.748,1.271,1.42,2.018,1.346.374-.748,1.795-1.2.9-.748,1.2-1.645a1.642,1.642,0,0,1,2.168-1.2c.972.449.3,1.122.374,1.87s1.795.822,3.14,1.271,2.093,0,4.785.9,2.841,3.588,3.962,4.037,4.86-.3,7.551,1.645,1.944,5.532,3.29,6.579,6.355,2.467,8.3,2.841,2.243-.972,3.813-.6,2.467.822,2.99,2.991C725.405,7488.474,719.561,7492.473,718.889,7494.267Z"/><path class="d" d="M678.716,7456.038c.049.423,1.3.6,2.791,1.445s2.043,3.34,2.841,3.29.548-1.2.847-1.5a.967.967,0,0,0,0-1.595c-.8-.648-1.574-2.044-3.03-2.243s-1.7-.8-2.353-.748A1.128,1.128,0,0,0,678.716,7456.038Z"/><path class="d" d="M686.94,7460.225c-.222.611,0,1.046,1.595,1.445s3.09-.4,2.591-.722-1.246-.175-.947-.723.2-1.346-1.1-1.2S687.139,7459.676,686.94,7460.225Z"/><path class="d" d="M692.522,7460.4c-.544.078-.847,1.026-.3,1.624s.548.5,1.2,0,1.645-.746,1.4-1.245S693.07,7460.316,692.522,7460.4Z"/><path class="d" d="M696.858,7462.431c.244-.747,1.5-.013,2.044.784a3.224,3.224,0,0,1,0,2.791c-.3.848-.5,1.845-1.2,1.446s.05-1.6-.049-2.293S696.659,7463.042,696.858,7462.431Z"/><path class="d" d="M718.34,7420.849c-.26.626.947.848,1.645,1.246s1.246.648,1.645,0a1.1,1.1,0,0,0-.7-1.545C720.384,7420.4,718.589,7420.251,718.34,7420.849Z"/><path class="d" d="M727.76,7426.681c.461.485,1.246.4,1.795,1.1s.349,1.894,1.047,2.243,1.2,0,1.246-.5-1-1.745-.9-1.994,1.446.349,1.745,1.1-.3,1.794.4,1.993.548-.7.847-.9.947-.1.9-.7a4.5,4.5,0,0,0-1.495-2.342,5.582,5.582,0,0,0-2.243-1.2,3.3,3.3,0,0,0-2.692.4C727.86,7426.332,727.477,7426.382,727.76,7426.681Z"/><path class="d" d="M749.325,7436.074a.893.893,0,0,1-.281.525c-1.047.748-2.294-1.844-3.738-2.342s-2.094-2.343-2.393-1.944-.2.947-.649,1.6-1.1.5-1.395,1.744,1.395,3.54,1,4.287-.9.5-1.7.449-.648.647-1.693.348-.151-1.595-1.8-3.14-2.193-1.843-1.842-2.542-.151-1.694.6-1.794,1.346,1,1.843,1.3,1.147-.6,1.2-1.4-1.744-1.893-2.392-2.512-.7-2.871-.448-3.32,1-.3,1.2-1.4c.116-.644-.9-1.721-1.765-2.5A53.616,53.616,0,0,1,749.325,7436.074Z"/><path class="d" d="M756.768,7480.76c.15-1.595-.647-1.695.15-4.635a8.544,8.544,0,0,0-1.445-6.729c-.6-.649-1.894-.449-2.941.2s-.3,1.147-1,1.4-1.395-.149-2.043-.1-1.247,1.695-2.642,1.645-2.292-2.044-3.339-3.464-3.191-2.318-3.888-4.063.648-4.435.349-6.479-1.645-1.595-1.895-2.741.2-.6.549-1.695-.4-1.7.3-3.589,1.944-2.841,1.645-3.687-1.246-2.243-1.3-3.238.947-.949,2.841-2.346,2.392-1.295,3.838-.8a20.753,20.753,0,0,0,3.189.9c.848.149,1.995,2.343,2.343,2.243s.4-.748.549-1.7a2.109,2.109,0,0,1,.622-1.073,53.41,53.41,0,0,1-2.108,59.643C755.632,7492.693,756.619,7482.354,756.768,7480.76Z"/><path class="b" d="M768.441,7469.072c-.013,5.443-.235,11-1.732,16.317l-.463,2.016-.649,1.962-1.326,3.927-1.7,3.783c-.293.627-.55,1.274-.873,1.886l-1.032,1.8a61.546,61.546,0,0,1-10.02,13.267L747.6,7516.9c-1,.978-2.18,1.737-3.264,2.617a66,66,0,0,1-6.96,4.665c-1.214.694-2.493,1.27-3.739,1.909l-1.881.937c-.638.288-1.3.511-1.955.769l-3.938,1.483-4.064,1.09-2.036.539-2.078.337-4.161.668-4.2.252-2.105.122c-.7.006-1.4-.048-2.106-.07l-4.214-.186c-1.4-.142-2.785-.4-4.178-.591a67.35,67.35,0,0,1-8.234-1.841c-1.34-.426-2.652-.944-3.979-1.413l-1.985-.723c-.646-.278-1.273-.6-1.911-.9l-3.809-1.829-3.618-2.183a28.592,28.592,0,0,1-3.477-2.391c-1.112-.863-2.282-1.656-3.343-2.579a65.4,65.4,0,0,1-6.041-5.891,60.515,60.515,0,0,1-9.56-13.841l-1.8-3.816c-.545-1.294-.968-2.639-1.455-3.956l-.706-1.985c-.219-.667-.354-1.359-.535-2.037l-1.014-4.088a66.522,66.522,0,0,1-1-16.735,61.1,61.1,0,0,1,36.486-51.675,62.535,62.535,0,0,0-23.759,21.656,61.129,61.129,0,0,0-9.7,30.2,68.071,68.071,0,0,0,1.31,15.861l1.026,3.846c.181.638.316,1.29.534,1.916l.7,1.862c.483,1.234.9,2.5,1.431,3.707l1.757,3.565a30.851,30.851,0,0,0,1.963,3.449c.719,1.11,1.317,2.3,2.132,3.347a58.4,58.4,0,0,0,4.995,6.164,61.485,61.485,0,0,0,5.706,5.507c1,.863,2.108,1.6,3.156,2.4l1.591,1.185c.537.384,1.126.692,1.684,1.046,17.786,11.682,41.864,12.309,60.657,2.262a65.247,65.247,0,0,0,12.965-9.325,60.3,60.3,0,0,0,10.156-12.412l1.095-1.7c.345-.577.626-1.19.943-1.784l1.854-3.6,1.5-3.764.74-1.89.557-1.951c.365-1.3.761-2.6,1.1-3.916l.725-4.008c.12-.669.268-1.336.366-2.009l.176-2.034Z"/><path class="b" d="M685.921,7420.758l-7.227,3.436-5.094-15.238,3.719-1.768Z"/><rect class="b" width="7.758" height="32.705" transform="translate(704.306 7530.481)"/><rect class="b" width="56.85" height="7.048" transform="translate(679.76 7556.122)"/></g></svg>