<svg width="909" height="357" viewBox="0 0 909 357" fill="none" xmlns="http://www.w3.org/2000/svg">
<path d="M10.6472 145.195V203.572H51.7872C89.6752 203.572 89.6752 145.195 51.7872 145.195H10.6472ZM10.6472 211.537V250.891H1.8645V137.068H51.7872C101.219 137.068 101.219 211.537 51.7872 211.537H10.6472Z" fill="#242422"/>
<path d="M138.295 145.032H97.155V137.228H188.218V145.032H147.078V250.891H138.295V145.032Z" fill="#242422"/>
<path d="M215.374 189.587H282.044V197.559H215.374V242.436H287.248V250.892H206.757V137.068H285.297V145.356H215.374V189.587Z" fill="#242422"/>
<path d="M420.94 168.45L383.873 217.881H379.648L343.376 168.294V251.047H321.916V137.235H346.632L382.238 186.189L417.852 137.235H442.4V251.047H420.94V168.45Z" fill="#242422"/>
<path d="M724.303 164.871C716.655 157.558 705.267 153.488 695.349 153.488C670.963 153.488 656.164 172.028 656.164 195.439C656.164 214.147 667.061 233.5 695.349 233.5C704.296 233.5 712.1 231.538 721.041 224.379V204.224H691.944V185.05H740.719V232.998C729.497 245.852 715.363 253.488 695.349 253.488C652.585 253.488 635.195 225.362 635.195 195.439C635.195 163.411 655.2 133.823 695.349 133.823C710.635 133.823 725.919 139.664 737.629 151.215L724.303 164.871Z" fill="#242422"/>
<path d="M762.681 137.068H783.981V250.892H762.681V137.068Z" fill="#242422"/>
<path d="M908.042 236.576C896.337 248.126 881.221 253.49 864.793 253.49C822.518 253.49 804.625 224.38 804.47 194.794C804.302 165.039 823.65 134.782 864.793 134.782C880.238 134.782 894.877 140.658 906.588 152.196L892.28 166.008C884.793 158.695 874.716 155.284 864.793 155.284C837.318 155.284 825.446 175.775 825.613 194.794C825.762 213.656 836.666 233.322 864.793 233.322C874.716 233.322 885.936 229.264 893.416 221.783L908.042 236.576Z" fill="#242422"/>
<path d="M534.775 108.354C534.775 108.354 524.13 162.526 552.897 218.971C551.914 218.432 544.858 213.68 544.858 213.68L487.894 253.74L508.21 187.158L453.154 145.123L522.525 144.44L534.775 108.354Z" fill="#242422"/>
<path d="M534.775 108.354C534.775 108.354 524.13 162.526 552.897 218.971C551.914 218.432 544.858 213.68 544.858 213.68L487.894 253.74L508.21 187.158L453.154 145.123L522.525 144.44L534.775 108.354Z" stroke="#2B2B2A" stroke-width="1.272" stroke-miterlimit="10"/>
<path d="M546.787 65.3024C546.787 65.3024 539.527 162.896 638.265 141.484C636.961 141.962 596.499 161.736 587.941 175.512C587.941 175.512 565.331 205.984 608.522 259.76C608.522 259.76 563.71 233.836 546.978 173.561C547.815 173.561 530.258 131.669 546.787 65.3024" fill="#242422"/>
<path d="M546.787 65.3024C546.787 65.3024 539.527 162.896 638.265 141.484C636.961 141.962 596.499 161.736 587.941 175.512C587.941 175.512 565.331 205.984 608.522 259.76C608.522 259.76 563.71 233.836 546.978 173.561C547.815 173.561 530.258 131.669 546.787 65.3024V65.3024Z" stroke="#2B2B2A" stroke-width="1.272" stroke-miterlimit="10"/>
<path fill-rule="evenodd" clip-rule="evenodd" d="M547.385 0.00032537L553.895 13.2017L568.479 15.3443L557.922 25.6137L560.413 40.1323L547.385 33.2857L534.339 40.1323L536.834 25.6137L526.285 15.3443L540.867 13.2017L547.385 0.00032537Z" fill="#242422"/>
<path fill-rule="evenodd" clip-rule="evenodd" d="M580.898 40.1317L584.058 46.5224L591.124 47.5637L586.002 52.5317L587.216 59.5811L580.898 56.2544L574.578 59.5811L575.78 52.5317L570.67 47.5637L577.738 46.5224L580.898 40.1317Z" fill="#242422"/>
<path fill-rule="evenodd" clip-rule="evenodd" d="M513.639 40.1317L516.799 46.5224L523.865 47.5637L518.749 52.5317L519.964 59.5811L513.639 56.2544L507.325 59.5811L508.528 52.5317L503.411 47.5637L510.479 46.5224L513.639 40.1317Z" fill="#242422"/>
<path d="M1 306.331H2.26L10.74 331.286L19.1093 306.331H19.7013L27.996 331.286L36.5867 306.331H37.8827L28.7747 332.321H27.108L22.7747 319.215L19.4053 308.623L15.9973 319.102L11.592 332.321H9.96133L1 306.331Z" fill="#2B2B2A"/>
<path d="M1 306.331H2.26L10.74 331.286L19.1093 306.331H19.7013L27.996 331.286L36.5867 306.331H37.8827L28.7747 332.321H27.108L22.7747 319.215L19.4053 308.623L15.9973 319.102L11.592 332.321H9.96133L1 306.331Z" stroke="#2B2B2A" stroke-width="1.272" stroke-miterlimit="10"/>
<path d="M50.7302 306.332H51.9156V332.25H50.7302V306.332Z" fill="#2B2B2A" stroke="#2B2B2A" stroke-width="1.272" stroke-miterlimit="10"/>
<path d="M63.741 306.331H84.3636V307.479H74.6263V332.249H73.4423V307.479H63.741V306.331Z" fill="#2B2B2A"/>
<path d="M63.741 306.331H84.3636V307.479H74.6263V332.249H73.4423V307.479H63.741V306.331Z" stroke="#2B2B2A" stroke-width="1.272" stroke-miterlimit="10"/>
<path d="M115.048 332.25V320.143H97.3855V332.25H96.2002V306.332H97.3855V318.995H115.048V306.332H116.234V332.25H115.048Z" fill="#2B2B2A"/>
<path d="M115.048 332.25V320.143H97.3855V332.25H96.2002V306.332H97.3855V318.995H115.048V306.332H116.234V332.25H115.048Z" stroke="#2B2B2A" stroke-width="1.272" stroke-miterlimit="10"/>
<path d="M171.446 307.846L160.967 324.213H160.595L150.006 307.923V332.25H148.822V306.331H150.378L160.746 322.399L170.963 306.331H172.631V332.25H171.446V307.846Z" fill="#2B2B2A"/>
<path d="M171.446 307.846L160.967 324.213H160.595L150.006 307.923V332.25H148.822V306.331H150.378L160.746 322.399L170.963 306.331H172.631V332.25H171.446V307.846Z" stroke="#2B2B2A" stroke-width="1.272" stroke-miterlimit="10"/>
<path d="M204.874 324.363L197.433 307.439L189.917 324.363H204.874ZM196.73 306.332H198.136L209.764 332.25H208.354L205.356 325.511H189.472L186.509 332.25H185.102L196.73 306.332Z" fill="#2B2B2A"/>
<path d="M204.874 324.363L197.433 307.439L189.917 324.363H204.874ZM196.73 306.332H198.136L209.764 332.25H208.354L205.356 325.511H189.472L186.509 332.25H185.102L196.73 306.332Z" stroke="#2B2B2A" stroke-width="1.272" stroke-miterlimit="10"/>
<path d="M241.153 310.735C238.782 308.366 235.785 307.182 232.712 307.182C224.602 307.182 220.566 312.883 220.601 319.253C220.601 325.805 224.86 331.365 232.712 331.365C235.674 331.365 239.153 330.066 241.153 327.917V320.215H231.452V319.066H242.337V328.438C239.746 331.101 236.377 332.507 232.712 332.507C224.121 332.507 219.417 326.438 219.417 319.287C219.381 310.993 225.12 306.033 232.712 306.033C236.081 306.033 239.3 307.295 241.93 309.886L241.153 310.735Z" fill="#2B2B2A"/>
<path d="M241.153 310.735C238.782 308.366 235.785 307.182 232.712 307.182C224.602 307.182 220.566 312.883 220.601 319.253C220.601 325.805 224.86 331.365 232.712 331.365C235.674 331.365 239.153 330.066 241.153 327.917V320.215H231.452V319.066H242.337V328.438C239.746 331.101 236.377 332.507 232.712 332.507C224.121 332.507 219.417 326.438 219.417 319.287C219.381 310.993 225.12 306.033 232.712 306.033C236.081 306.033 239.3 307.295 241.93 309.886L241.153 310.735Z" stroke="#2B2B2A" stroke-width="1.272" stroke-miterlimit="10"/>
<path d="M256.141 306.332H257.326V332.25H256.141V306.332Z" fill="#2B2B2A" stroke="#2B2B2A" stroke-width="1.272" stroke-miterlimit="10"/>
<path d="M293.292 328.581C290.736 331.179 287.292 332.471 283.962 332.471C275.443 332.471 270.778 326.475 270.743 319.437C270.631 312.477 275.186 306.032 283.962 306.032C287.331 306.032 290.736 307.295 293.292 309.887L292.478 310.664C290.108 308.293 287.035 307.181 283.962 307.181C276.075 307.181 271.888 312.735 271.927 319.401C271.999 325.919 276.222 331.323 283.962 331.323C287.035 331.323 290.108 330.137 292.442 327.844L293.292 328.581Z" fill="#2B2B2A"/>
<path d="M293.292 328.581C290.736 331.179 287.292 332.471 283.962 332.471C275.443 332.471 270.778 326.475 270.743 319.437C270.631 312.477 275.186 306.032 283.962 306.032C287.331 306.032 290.736 307.295 293.292 309.887L292.478 310.664C290.108 308.293 287.035 307.181 283.962 307.181C276.075 307.181 271.888 312.735 271.927 319.401C271.999 325.919 276.222 331.323 283.962 331.323C287.035 331.323 290.108 330.137 292.442 327.844L293.292 328.581Z" stroke="#2B2B2A" stroke-width="1.272" stroke-miterlimit="10"/>
<path d="M305.982 332.435C305.614 332.321 305.354 332.101 305.354 331.544C305.354 330.18 307.391 330.137 307.391 331.544C307.391 331.844 307.242 332.136 307.095 332.508L305.946 335.177H304.871L305.982 332.435Z" fill="#2B2B2A"/>
<path d="M305.982 332.435C305.614 332.321 305.354 332.101 305.354 331.544C305.354 330.18 307.391 330.137 307.391 331.544C307.391 331.844 307.242 332.136 307.095 332.508L305.946 335.177H304.871L305.982 332.435Z" stroke="#2B2B2A" stroke-width="1.272" stroke-miterlimit="10"/>
<path d="M460.958 306.332H462.143V332.25H460.958V306.332Z" fill="#2B2B2A" stroke="#2B2B2A" stroke-width="1.272" stroke-miterlimit="10"/>
<path d="M493.887 310.7C491.853 307.923 488.334 307.217 485.557 307.217C482.594 307.217 477.115 307.959 477.115 313.107C477.115 316.624 481.002 317.439 485.703 318.367C490.591 319.401 495.739 320.329 495.739 325.548C495.702 331.4 489.669 332.585 485.703 332.585C481.966 332.585 477.262 330.915 475.225 327.139L476.263 326.547C478.002 329.88 482.447 331.436 485.703 331.436C488.89 331.436 494.554 330.587 494.554 325.548C494.59 321.177 489.814 320.436 485.371 319.515C480.782 318.509 475.93 317.624 475.93 313.107C475.782 307.588 481.446 306.067 485.591 306.067C488.779 306.067 492.295 306.924 494.703 309.887L493.887 310.7Z" fill="#2B2B2A"/>
<path d="M493.887 310.7C491.853 307.923 488.334 307.217 485.557 307.217C482.594 307.217 477.115 307.959 477.115 313.107C477.115 316.624 481.002 317.439 485.703 318.367C490.591 319.401 495.739 320.329 495.739 325.548C495.702 331.4 489.669 332.585 485.703 332.585C481.966 332.585 477.262 330.915 475.225 327.139L476.263 326.547C478.002 329.88 482.447 331.436 485.703 331.436C488.89 331.436 494.554 330.587 494.554 325.548C494.59 321.177 489.814 320.436 485.371 319.515C480.782 318.509 475.93 317.624 475.93 313.107C475.782 307.588 481.446 306.067 485.591 306.067C488.779 306.067 492.295 306.924 494.703 309.887L493.887 310.7Z" stroke="#2B2B2A" stroke-width="1.272" stroke-miterlimit="10"/>
<path d="M526.326 306.332H527.512V332.25H526.326V306.332Z" fill="#2B2B2A" stroke="#2B2B2A" stroke-width="1.272" stroke-miterlimit="10"/>
<path d="M542.633 306.331H542.744L561.26 329.137L561.149 323.141V306.331H562.333V332.249L543.708 309.329L543.819 315.439V332.249H542.633V306.331Z" fill="#2B2B2A"/>
<path d="M542.633 306.331H542.744L561.26 329.137L561.149 323.141V306.331H562.333V332.249L543.708 309.329L543.819 315.439V332.249H542.633V306.331Z" stroke="#2B2B2A" stroke-width="1.272" stroke-miterlimit="10"/>
<path d="M601.14 321.957L590.957 306.331H592.364L601.732 320.843L611.061 306.331H612.472L602.325 321.957V332.25H601.14V321.957Z" fill="#2B2B2A"/>
<path d="M601.14 321.957L590.957 306.331H592.364L601.732 320.843L611.061 306.331H612.472L602.325 321.957V332.25H601.14V321.957Z" stroke="#2B2B2A" stroke-width="1.272" stroke-miterlimit="10"/>
<path d="M634.416 307.145C626.491 307.145 622.604 313.177 622.639 319.252C622.677 325.361 626.675 331.472 634.452 331.472C642.189 331.472 646.337 325.511 646.301 319.287C646.301 312.848 642.229 307.145 634.416 307.145ZM647.487 319.287C647.449 326.14 643.079 332.62 634.452 332.62C625.861 332.62 621.453 326.068 621.453 319.216C621.453 312.884 625.38 305.996 634.416 305.996C643.155 305.96 647.487 312.477 647.487 319.287" fill="#2B2B2A"/>
<path d="M634.416 307.145C626.491 307.145 622.604 313.177 622.639 319.252C622.677 325.361 626.675 331.472 634.452 331.472C642.189 331.472 646.337 325.511 646.301 319.287C646.301 312.848 642.229 307.145 634.416 307.145ZM647.487 319.287C647.449 326.14 643.079 332.62 634.452 332.62C625.861 332.62 621.453 326.068 621.453 319.216C621.453 312.884 625.38 305.996 634.416 305.996C643.155 305.96 647.487 312.477 647.487 319.287V319.287Z" stroke="#2B2B2A" stroke-width="1.272" stroke-miterlimit="10"/>
<path d="M679.695 306.331V322.734C679.695 329.509 674.695 332.507 670.101 332.549C665.437 332.549 660.587 329.401 660.587 322.734V306.331H661.772V322.734C661.772 328.766 666.14 331.401 670.101 331.401C674.063 331.401 678.509 328.809 678.509 322.734V306.331H679.695Z" fill="#2B2B2A"/>
<path d="M679.695 306.331V322.734C679.695 329.509 674.695 332.507 670.101 332.549C665.437 332.549 660.587 329.401 660.587 322.734V306.331H661.772V322.734C661.772 328.766 666.14 331.401 670.101 331.401C674.063 331.401 678.509 328.809 678.509 322.734V306.331H679.695Z" stroke="#2B2B2A" stroke-width="1.272" stroke-miterlimit="10"/>
<path d="M705.416 320.921C710.267 320.921 712.636 318.252 712.636 314.254C712.636 310.849 710.305 307.48 705.712 307.48H695.716V320.921H705.416ZM703.603 322.064H695.716V332.249H694.529V306.332H705.712C711.193 306.332 713.784 310.329 713.821 314.254C713.86 318.622 711.229 322.328 705.159 322.064L714.599 332.249H713.007L703.603 322.064Z" fill="#2B2B2A"/>
<path d="M705.416 320.921C710.267 320.921 712.636 318.252 712.636 314.254C712.636 310.849 710.305 307.48 705.712 307.48H695.716V320.921H705.416ZM703.603 322.064H695.716V332.249H694.529V306.332H705.712C711.193 306.332 713.784 310.329 713.821 314.254C713.86 318.622 711.229 322.328 705.159 322.064L714.599 332.249H713.007L703.603 322.064Z" stroke="#2B2B2A" stroke-width="1.272" stroke-miterlimit="10"/>
<path d="M763.89 332.25V320.143H746.227V332.25H745.041V306.332H746.227V318.995H763.89V306.332H765.075V332.25H763.89Z" fill="#2B2B2A"/>
<path d="M763.89 332.25V320.143H746.227V332.25H745.041V306.332H746.227V318.995H763.89V306.332H765.075V332.25H763.89Z" stroke="#2B2B2A" stroke-width="1.272" stroke-miterlimit="10"/>
<path d="M797.316 324.363L789.874 307.439L782.357 324.363H797.316ZM789.172 306.332H790.577L802.205 332.25H800.796L797.797 325.511H781.912L778.95 332.25H777.542L789.172 306.332Z" fill="#2B2B2A"/>
<path d="M797.316 324.363L789.874 307.439L782.357 324.363H797.316ZM789.172 306.332H790.577L802.205 332.25H800.796L797.797 325.511H781.912L778.95 332.25H777.542L789.172 306.332Z" stroke="#2B2B2A" stroke-width="1.272" stroke-miterlimit="10"/>
<path d="M814.67 306.331H814.782L833.298 329.137L833.183 323.141V306.331H834.367V332.249L815.745 309.329L815.857 315.439V332.249H814.67V306.331Z" fill="#2B2B2A"/>
<path d="M814.67 306.331H814.782L833.298 329.137L833.183 323.141V306.331H834.367V332.249L815.745 309.329L815.857 315.439V332.249H814.67V306.331Z" stroke="#2B2B2A" stroke-width="1.272" stroke-miterlimit="10"/>
<path d="M857.911 331.101C866.059 331.101 870.056 325.212 869.945 318.994C869.835 313.033 865.873 307.48 857.911 307.48H850.691V331.101H857.911ZM849.505 306.332H857.911C866.687 306.332 870.944 312.406 871.131 318.994C871.28 325.804 866.984 332.249 857.911 332.249H849.505V306.332Z" fill="#2B2B2A"/>
<path d="M857.911 331.101C866.059 331.101 870.056 325.212 869.945 318.994C869.835 313.033 865.873 307.48 857.911 307.48H850.691V331.101H857.911ZM849.505 306.332H857.911C866.687 306.332 870.944 312.406 871.131 318.994C871.28 325.804 866.984 332.249 857.911 332.249H849.505V306.332Z" stroke="#2B2B2A" stroke-width="1.272" stroke-miterlimit="10"/>
<path d="M901.188 310.7C899.153 307.923 895.633 307.217 892.857 307.217C889.895 307.217 884.416 307.959 884.416 313.107C884.416 316.624 888.303 317.439 893.003 318.367C897.892 319.401 903.04 320.329 903.04 325.548C903.003 331.4 896.968 332.585 893.003 332.585C889.267 332.585 884.563 330.915 882.525 327.139L883.563 326.547C885.301 329.88 889.748 331.436 893.003 331.436C896.191 331.436 901.855 330.587 901.855 325.548C901.889 321.177 897.115 320.436 892.671 319.515C888.081 318.509 883.231 317.624 883.231 313.107C883.081 307.588 888.745 306.067 892.892 306.067C896.08 306.067 899.596 306.924 902.004 309.887L901.188 310.7Z" fill="#2B2B2A"/>
<path d="M901.188 310.7C899.153 307.923 895.633 307.217 892.857 307.217C889.895 307.217 884.416 307.959 884.416 313.107C884.416 316.624 888.303 317.439 893.003 318.367C897.892 319.401 903.04 320.329 903.04 325.548C903.003 331.4 896.968 332.585 893.003 332.585C889.267 332.585 884.563 330.915 882.525 327.139L883.563 326.547C885.301 329.88 889.748 331.436 893.003 331.436C896.191 331.436 901.855 330.587 901.855 325.548C901.889 321.177 897.115 320.436 892.671 319.515C888.081 318.509 883.231 317.624 883.231 313.107C883.081 307.588 888.745 306.067 892.892 306.067C896.08 306.067 899.596 306.924 902.004 309.887L901.188 310.7Z" stroke="#2B2B2A" stroke-width="1.272" stroke-miterlimit="10"/>
<path d="M594.243 112.938C594.243 119.138 589.221 124.165 583.016 124.165C576.817 124.165 571.795 119.138 571.795 112.938C571.795 106.75 576.817 101.712 583.016 101.712C589.221 101.712 594.243 106.75 594.243 112.938Z" fill="#242422"/>
<path d="M594.243 112.938C594.243 119.138 589.221 124.165 583.016 124.165C576.817 124.165 571.795 119.138 571.795 112.938C571.795 106.75 576.817 101.712 583.016 101.712C589.221 101.712 594.243 106.75 594.243 112.938Z" stroke="#2B2B2A" stroke-width="1.272" stroke-miterlimit="10"/>
<path d="M428.292 315.128C428.292 337.719 409.994 356.039 387.403 356.039C364.819 356.039 346.512 337.719 346.512 315.128C346.512 292.564 364.819 274.231 387.403 274.231C409.994 274.231 428.292 292.564 428.292 315.128Z" fill="#242422"/>
<path d="M409.019 316.979V308.757H415.439V316.979H423.639V323.404H415.439V331.612H409.019V323.404H400.792V316.979H409.019ZM389.28 315.795V307.213C389.28 306.364 389.114 305.752 388.772 305.404C388.446 305.084 387.979 304.932 387.375 304.932C386.776 304.932 386.303 305.084 385.97 305.404C385.635 305.683 385.476 306.295 385.476 307.213V315.795C385.476 316.673 385.643 317.271 385.976 317.617C386.303 317.939 386.776 318.119 387.375 318.119C388.015 318.119 388.487 317.939 388.814 317.617C389.12 317.297 389.28 316.7 389.28 315.795ZM397.299 307.811V326.423C397.299 329.22 396.431 331.432 394.699 333.016C392.952 334.644 390.511 335.451 387.375 335.451C384.391 335.451 382.096 334.771 380.49 333.379C378.827 331.891 377.978 329.539 377.978 326.34H385.19C385.19 327.34 385.358 328.064 385.698 328.565C386.039 329.065 386.596 329.317 387.375 329.317C388.154 329.317 388.718 329.065 389.058 328.565C389.378 328.037 389.538 327.3 389.538 326.34V322.305L389.455 322.208C388.878 322.973 388.238 323.544 387.555 323.877L386.478 324.141L384.926 324.239C382.22 324.239 380.239 323.363 378.972 321.568C377.943 319.927 377.428 317.688 377.428 314.793V307.811C377.428 305.043 378.291 302.844 380.01 301.219C381.734 299.576 384.188 298.769 387.375 298.769C390.532 298.769 392.994 299.561 394.747 301.175C396.459 302.803 397.299 305.015 397.299 307.811ZM354.031 306.045V299.353H374.715V305.363L373.722 307.088L372.775 308.853C371.94 310.427 371.168 312.111 370.48 313.904C370.14 314.849 369.75 315.976 369.311 317.34C369.09 317.98 368.86 318.717 368.623 319.552C367.483 323.793 366.906 327.577 366.906 330.901L366.634 334.896H358.059L358.19 332.641L358.371 331.083C358.546 329.025 358.851 327.173 359.275 325.575C359.671 323.669 360.2 321.791 360.868 319.927C361.883 316.771 363.344 313.249 365.278 309.396L366.947 306.045H354.031Z" fill="#FFE600"/>
</svg>
